<svg width="98" height="17" viewBox="0 0 98 17" fill="none" xmlns="http://www.w3.org/2000/svg">
<path d="M2.888 15.464H6.92C8.264 15.464 8.936 14.768 8.936 13.376V5.192C8.936 3.8 8.264 3.104 6.92 3.104H2.888C2.728 3.104 2.648 3.176 2.648 3.32V15.248C2.648 15.392 2.728 15.464 2.888 15.464ZM0.896 16.664V1.904C0.896 1.68 1.008 1.568 1.232 1.568H7.136C8.24 1.568 9.104 1.888 9.728 2.528C10.368 3.152 10.688 4.016 10.688 5.12V13.448C10.688 14.552 10.368 15.424 9.728 16.064C9.104 16.688 8.24 17 7.136 17H1.232C1.008 17 0.896 16.888 0.896 16.664ZM20.0879 17H18.0239C16.9199 17 16.0479 16.688 15.4079 16.064C14.7839 15.44 14.4719 14.568 14.4719 13.448V8.312C14.4719 7.192 14.7839 6.32 15.4079 5.696C16.0479 5.072 16.9199 4.76 18.0239 4.76H20.0879C21.1919 4.76 22.0559 5.072 22.6799 5.696C23.3199 6.32 23.6399 7.192 23.6399 8.312V13.448C23.6399 14.568 23.3199 15.44 22.6799 16.064C22.0559 16.688 21.1919 17 20.0879 17ZM18.2159 15.464H19.8959C21.2399 15.464 21.9119 14.776 21.9119 13.4V8.36C21.9119 6.984 21.2399 6.296 19.8959 6.296H18.2159C16.8719 6.296 16.1999 6.984 16.1999 8.36V13.4C16.1999 14.776 16.8719 15.464 18.2159 15.464ZM28.9679 17H27.8879C27.6639 17 27.5519 16.888 27.5519 16.664V0.464C27.5519 0.24 27.6639 0.128 27.8879 0.128H28.9679C29.1919 0.128 29.3039 0.24 29.3039 0.464V16.664C29.3039 16.888 29.1919 17 28.9679 17Z" fill="#EC3C05"/>
<path d="M39.5928 17H37.0008C35.8968 17 35.0248 16.688 34.3848 16.064C33.7608 15.44 33.4488 14.568 33.4488 13.448V5.12C33.4488 4 33.7608 3.128 34.3848 2.504C35.0248 1.88 35.8968 1.568 37.0008 1.568H39.5928C40.6968 1.568 41.5608 1.888 42.1848 2.528C42.8088 3.152 43.1208 4.016 43.1208 5.12V6.104C43.1208 6.344 43.0088 6.464 42.7848 6.464H41.7048C41.4808 6.464 41.3688 6.344 41.3688 6.104V5.192C41.3688 3.8 40.7048 3.104 39.3768 3.104H37.1928C35.8648 3.104 35.2008 3.8 35.2008 5.192V13.376C35.2008 14.768 35.8648 15.464 37.1928 15.464H39.3768C40.7048 15.464 41.3688 14.768 41.3688 13.376V10.688C41.3688 10.528 41.2968 10.448 41.1528 10.448H38.7768C38.5528 10.448 38.4408 10.344 38.4408 10.136V9.248C38.4408 9.024 38.5528 8.912 38.7768 8.912H42.6408C42.9608 8.912 43.1208 9.08 43.1208 9.416V13.448C43.1208 14.568 42.8088 15.44 42.1848 16.064C41.5608 16.688 40.6968 17 39.5928 17ZM51.8332 17H50.4892C49.4012 17 48.5532 16.688 47.9452 16.064C47.3372 15.44 47.0332 14.568 47.0332 13.448V5.096C47.0332 4.872 47.1452 4.76 47.3692 4.76H48.4492C48.6732 4.76 48.7852 4.872 48.7852 5.096V13.376C48.7852 14.768 49.4492 15.464 50.7772 15.464H52.1452C52.8652 15.464 53.4172 15.272 53.8012 14.888C54.1852 14.504 54.3772 13.96 54.3772 13.256V5.096C54.3772 4.872 54.4892 4.76 54.7132 4.76H55.7932C56.0172 4.76 56.1292 4.872 56.1292 5.096V16.664C56.1292 16.888 56.0172 17 55.7932 17H54.7132C54.4892 17 54.3772 16.888 54.3772 16.664V15.728H54.2812C53.8812 16.576 53.0652 17 51.8332 17ZM61.6904 17H60.6104C60.3864 17 60.2744 16.888 60.2744 16.664V0.464C60.2744 0.24 60.3864 0.128 60.6104 0.128H61.6904C61.9144 0.128 62.0264 0.24 62.0264 0.464V16.664C62.0264 16.888 61.9144 17 61.6904 17ZM70.8033 17H69.3873C68.2993 17 67.4513 16.688 66.8433 16.064C66.2353 15.44 65.9313 14.568 65.9313 13.448V8.312C65.9313 7.192 66.2353 6.32 66.8433 5.696C67.4513 5.072 68.2993 4.76 69.3873 4.76H70.8033C72.0513 4.76 72.8753 5.184 73.2753 6.032H73.3713V0.464C73.3713 0.24 73.4753 0.128 73.6833 0.128H74.7873C74.9953 0.128 75.0993 0.24 75.0993 0.464V16.664C75.0993 16.888 74.9953 17 74.7873 17H73.6833C73.4753 17 73.3713 16.888 73.3713 16.664V15.728H73.2753C72.8753 16.576 72.0513 17 70.8033 17ZM73.3713 13.256V8.504C73.3713 7.8 73.1793 7.256 72.7953 6.872C72.4113 6.488 71.8593 6.296 71.1393 6.296H69.6753C68.3473 6.296 67.6833 6.992 67.6833 8.384V13.376C67.6833 14.768 68.3473 15.464 69.6753 15.464H71.1393C71.8593 15.464 72.4113 15.272 72.7953 14.888C73.1793 14.504 73.3713 13.96 73.3713 13.256ZM83.8057 17H82.4617C81.3737 17 80.5257 16.688 79.9177 16.064C79.3097 15.44 79.0057 14.568 79.0057 13.448V5.096C79.0057 4.872 79.1177 4.76 79.3417 4.76H80.4217C80.6457 4.76 80.7577 4.872 80.7577 5.096V13.376C80.7577 14.768 81.4217 15.464 82.7497 15.464H84.1177C84.8377 15.464 85.3897 15.272 85.7737 14.888C86.1577 14.504 86.3497 13.96 86.3497 13.256V5.096C86.3497 4.872 86.4617 4.76 86.6857 4.76H87.7657C87.9897 4.76 88.1017 4.872 88.1017 5.096V16.664C88.1017 16.888 87.9897 17 87.7657 17H86.6857C86.4617 17 86.3497 16.888 86.3497 16.664V15.728H86.2537C85.8537 16.576 85.0377 17 83.8057 17ZM93.5429 17H92.4629C92.2389 17 92.1269 16.888 92.1269 16.664V5.096C92.1269 4.872 92.2389 4.76 92.4629 4.76H93.5429C93.7669 4.76 93.8789 4.872 93.8789 5.096V6.056H93.9749C94.1349 5.704 94.4389 5.4 94.8869 5.144C95.3349 4.888 95.8629 4.76 96.4709 4.76H97.4069C97.6149 4.76 97.7189 4.872 97.7189 5.096V5.984C97.7189 6.096 97.6949 6.184 97.6469 6.248C97.5989 6.296 97.5189 6.312 97.4069 6.296H96.1109C95.3909 6.296 94.8389 6.512 94.4549 6.944C94.0709 7.376 93.8789 7.968 93.8789 8.72V16.664C93.8789 16.888 93.7669 17 93.5429 17Z" fill="white"/>
</svg>
