<svg width="147" height="26" viewBox="0 0 147 26" fill="none" xmlns="http://www.w3.org/2000/svg">
<path d="M3.832 23.696H9.88C11.896 23.696 12.904 22.652 12.904 20.564V8.288C12.904 6.2 11.896 5.156 9.88 5.156H3.832C3.592 5.156 3.472 5.264 3.472 5.48V23.372C3.472 23.588 3.592 23.696 3.832 23.696ZM0.844 25.496V3.356C0.844 3.02 1.012 2.852 1.348 2.852H10.204C11.86 2.852 13.156 3.332 14.092 4.292C15.052 5.228 15.532 6.524 15.532 8.18V20.672C15.532 22.328 15.052 23.636 14.092 24.596C13.156 25.532 11.86 26 10.204 26H1.348C1.012 26 0.844 25.832 0.844 25.496ZM29.6319 26H26.5359C24.8799 26 23.5719 25.532 22.6119 24.596C21.6759 23.66 21.2079 22.352 21.2079 20.672V12.968C21.2079 11.288 21.6759 9.98 22.6119 9.044C23.5719 8.108 24.8799 7.64 26.5359 7.64H29.6319C31.2879 7.64 32.5839 8.108 33.5199 9.044C34.4799 9.98 34.9599 11.288 34.9599 12.968V20.672C34.9599 22.352 34.4799 23.66 33.5199 24.596C32.5839 25.532 31.2879 26 29.6319 26ZM26.8239 23.696H29.3439C31.3599 23.696 32.3679 22.664 32.3679 20.6V13.04C32.3679 10.976 31.3599 9.944 29.3439 9.944H26.8239C24.8079 9.944 23.7999 10.976 23.7999 13.04V20.6C23.7999 22.664 24.8079 23.696 26.8239 23.696ZM42.9519 26H41.3319C40.9959 26 40.8279 25.832 40.8279 25.496V1.196C40.8279 0.86 40.9959 0.692 41.3319 0.692H42.9519C43.2879 0.692 43.4559 0.86 43.4559 1.196V25.496C43.4559 25.832 43.2879 26 42.9519 26Z" fill="#EC3C05"/>
<path d="M58.8892 26H55.0012C53.3452 26 52.0372 25.532 51.0772 24.596C50.1412 23.66 49.6732 22.352 49.6732 20.672V8.18C49.6732 6.5 50.1412 5.192 51.0772 4.256C52.0372 3.32 53.3452 2.852 55.0012 2.852H58.8892C60.5452 2.852 61.8412 3.332 62.7772 4.292C63.7132 5.228 64.1812 6.524 64.1812 8.18V9.656C64.1812 10.016 64.0132 10.196 63.6772 10.196H62.0572C61.7212 10.196 61.5532 10.016 61.5532 9.656V8.288C61.5532 6.2 60.5572 5.156 58.5652 5.156H55.2892C53.2972 5.156 52.3012 6.2 52.3012 8.288V20.564C52.3012 22.652 53.2972 23.696 55.2892 23.696H58.5652C60.5572 23.696 61.5532 22.652 61.5532 20.564V16.532C61.5532 16.292 61.4452 16.172 61.2292 16.172H57.6652C57.3292 16.172 57.1612 16.016 57.1612 15.704V14.372C57.1612 14.036 57.3292 13.868 57.6652 13.868H63.4612C63.9412 13.868 64.1812 14.12 64.1812 14.624V20.672C64.1812 22.352 63.7132 23.66 62.7772 24.596C61.8412 25.532 60.5452 26 58.8892 26ZM77.2498 26H75.2338C73.6018 26 72.3298 25.532 71.4178 24.596C70.5058 23.66 70.0498 22.352 70.0498 20.672V8.144C70.0498 7.808 70.2178 7.64 70.5538 7.64H72.1738C72.5098 7.64 72.6778 7.808 72.6778 8.144V20.564C72.6778 22.652 73.6738 23.696 75.6658 23.696H77.7178C78.7978 23.696 79.6258 23.408 80.2018 22.832C80.7778 22.256 81.0658 21.44 81.0658 20.384V8.144C81.0658 7.808 81.2338 7.64 81.5698 7.64H83.1898C83.5258 7.64 83.6938 7.808 83.6938 8.144V25.496C83.6938 25.832 83.5258 26 83.1898 26H81.5698C81.2338 26 81.0658 25.832 81.0658 25.496V24.092H80.9218C80.3218 25.364 79.0978 26 77.2498 26ZM92.0357 26H90.4157C90.0797 26 89.9117 25.832 89.9117 25.496V1.196C89.9117 0.86 90.0797 0.692 90.4157 0.692H92.0357C92.3717 0.692 92.5397 0.86 92.5397 1.196V25.496C92.5397 25.832 92.3717 26 92.0357 26ZM105.705 26H103.581C101.949 26 100.677 25.532 99.765 24.596C98.853 23.66 98.397 22.352 98.397 20.672V12.968C98.397 11.288 98.853 9.98 99.765 9.044C100.677 8.108 101.949 7.64 103.581 7.64H105.705C107.577 7.64 108.813 8.276 109.413 9.548H109.557V1.196C109.557 0.86 109.713 0.692 110.025 0.692H111.681C111.993 0.692 112.149 0.86 112.149 1.196V25.496C112.149 25.832 111.993 26 111.681 26H110.025C109.713 26 109.557 25.832 109.557 25.496V24.092H109.413C108.813 25.364 107.577 26 105.705 26ZM109.557 20.384V13.256C109.557 12.2 109.269 11.384 108.693 10.808C108.117 10.232 107.289 9.944 106.209 9.944H104.013C102.021 9.944 101.025 10.988 101.025 13.076V20.564C101.025 22.652 102.021 23.696 104.013 23.696H106.209C107.289 23.696 108.117 23.408 108.693 22.832C109.269 22.256 109.557 21.44 109.557 20.384ZM125.209 26H123.193C121.561 26 120.289 25.532 119.377 24.596C118.465 23.66 118.009 22.352 118.009 20.672V8.144C118.009 7.808 118.177 7.64 118.513 7.64H120.133C120.469 7.64 120.637 7.808 120.637 8.144V20.564C120.637 22.652 121.633 23.696 123.625 23.696H125.677C126.757 23.696 127.585 23.408 128.161 22.832C128.737 22.256 129.025 21.44 129.025 20.384V8.144C129.025 7.808 129.193 7.64 129.529 7.64H131.149C131.485 7.64 131.653 7.808 131.653 8.144V25.496C131.653 25.832 131.485 26 131.149 26H129.529C129.193 26 129.025 25.832 129.025 25.496V24.092H128.881C128.281 25.364 127.057 26 125.209 26ZM139.814 26H138.194C137.858 26 137.69 25.832 137.69 25.496V8.144C137.69 7.808 137.858 7.64 138.194 7.64H139.814C140.15 7.64 140.318 7.808 140.318 8.144V9.584H140.462C140.702 9.056 141.158 8.6 141.83 8.216C142.502 7.832 143.294 7.64 144.206 7.64H145.61C145.922 7.64 146.078 7.808 146.078 8.144V9.476C146.078 9.644 146.042 9.776 145.97 9.872C145.898 9.944 145.778 9.968 145.61 9.944H143.666C142.586 9.944 141.758 10.268 141.182 10.916C140.606 11.564 140.318 12.452 140.318 13.58V25.496C140.318 25.832 140.15 26 139.814 26Z" fill="black"/>
</svg>
