<svg xmlns="http://www.w3.org/2000/svg" aria-hidden="true" style="position:absolute;width:0;height:0;overflow:hidden"><defs><symbol id="npm" viewBox="0 0 32 32"><path d="M0 9.779v10.667h8.888v1.776H16v-1.776h16V9.779H0zm8.888 8.885H7.112v-5.333h-1.78v5.333H1.78v-7.108h7.108v7.108zm5.333 0v1.781h-3.553v-8.889h7.112v7.109l-3.559-.001zm16.002 0H28.45v-5.333h-1.781v5.333h-1.78v-5.333h-1.773v5.333h-3.561v-7.108h10.669l-.001 7.108zM14.22 13.333H16v3.556h-1.78v-3.556z"/></symbol><symbol id="person" viewBox="0 0 32 32"><path d="M16 16c2.947 0 5.333-2.387 5.333-5.333S18.946 5.334 16 5.334c-2.947 0-5.333 2.387-5.333 5.333S13.054 16 16 16zm0 2.667c-3.56 0-10.667 1.787-10.667 5.333v1.333c0 .733.6 1.333 1.333 1.333h18.667c.733 0 1.333-.6 1.333-1.333V24c0-3.547-7.107-5.333-10.667-5.333z"/></symbol><symbol id="phone" viewBox="0 0 32 32"><path d="m24.882 19.774-3.268-.373a2.561 2.561 0 0 0-2.11.733l-2.367 2.367a19.357 19.357 0 0 1-8.478-8.478l2.38-2.38a2.561 2.561 0 0 0 .733-2.11l-.373-3.242a2.575 2.575 0 0 0-2.56-2.277H6.613c-1.454 0-2.663 1.209-2.573 2.663.682 10.987 9.469 19.761 20.443 20.443 1.454.09 2.663-1.119 2.663-2.573v-2.226a2.55 2.55 0 0 0-2.264-2.547z"/></symbol><symbol id="playstation" viewBox="0 0 32 32"><path d="M11.98 3.461v23.397l5.22 1.681V8.916c0-.92.405-1.535 1.059-1.321.848.241 1.013 1.085 1.013 2.007v7.835c3.255 1.591 5.816-.003 5.816-4.204 0-4.316-1.501-6.233-5.917-7.769-1.743-.597-4.971-1.581-7.188-2.003h-.003zm6.208 21.656 8.395-3.033c.953-.344 1.101-.833.328-1.091-.781-.256-2.183-.185-3.143.164l-5.607 1.999v-3.18l.32-.113s1.601-.56 3.884-.82c2.261-.24 5.047.039 7.249.881 2.464.801 2.721 1.963 2.101 2.763s-2.163 1.381-2.163 1.381L18.16 28.211v-3.063l.028-.031zM2.411 24.8c-2.533-.727-2.952-2.224-1.803-3.095 1.068-.78 2.879-1.401 2.879-1.401l7.488-2.684v3.084l-5.367 1.963c-.94.361-1.1.843-.319 1.101.781.26 2.183.2 3.124-.16l2.584-.941v2.765c-.161.039-.341.059-.521.097-2.584.441-5.327.261-8.049-.639l-.016-.09z"/></symbol><symbol id="rails" viewBox="0 0 32 32"><path d="M27.846 21.081v1.551h2.642c.541 0 1.471-.42 1.503-1.594v-.6c0-1.003-.776-1.594-1.503-1.594h-1.317v-.72h2.61v-1.56h-2.505c-.646 0-1.511.566-1.511 1.62v.54c0 1.054.857 1.594 1.511 1.594 1.818.009-.436 0 1.244 0v.754l-2.674.009zm-14.157-.377s1.414-.129 1.414-2.066-1.713-2.117-1.713-2.117h-3.087v6.111h1.551v-1.474l1.341 1.474h2.295l-1.801-1.928zm-.598-1.252h-1.236v-1.397h1.244s.347.137.347.694-.356.703-.356.703h.001zm5.842-2.888h-1.576c-1.123 0-1.503 1.08-1.503 1.594v4.474h1.576v-1.071h1.479v1.071h1.527v-4.474c0-1.303-1.115-1.594-1.503-1.594zm-.024 3.265h-1.487v-1.483s0-.334.493-.334h.541c.436 0 .444.334.444.334v1.483h.009zm2.247-3.265h1.64v6.069h-1.64v-6.069zm3.943 4.5v-4.5h-1.632v6.069h3.838v-1.569h-2.206zM.566 22.632H6.95s-1.22-5.906 2.82-8.297c.881-.454 3.685-2.151 8.275 1.449.145-.129.283-.231.283-.231s-4.202-4.449-8.881-3.951c-2.351.223-5.244 2.494-6.941 5.494S.567 22.633.567 22.633l-.001-.001zm0 0H6.95s-1.22-5.906 2.82-8.297c.881-.454 3.685-2.151 8.275 1.449.145-.129.283-.231.283-.231s-4.202-4.449-8.881-3.951c-2.351.223-5.244 2.494-6.941 5.494S.567 22.633.567 22.633l-.001-.001zm0 0H6.95s-1.22-5.906 2.82-8.297c.881-.454 3.685-2.151 8.275 1.449.145-.129.283-.231.283-.231s-4.202-4.449-8.881-3.951c-2.36.223-5.253 2.494-6.949 5.494S.567 22.633.567 22.633l-.001-.001zm13.301-10.551.032-.574c-.073-.043-.275-.146-.784-.3l-.032.566c.267.094.525.197.784.309v-.001zm-.768 1.817-.032.54c.267.009.533.043.8.103l.032-.531a5.388 5.388 0 0 0-.8-.111v-.001zm-2.99-2.674h.081l-.162-.523c-.251 0-.509.017-.776.051l.154.506c.234-.026.469-.034.703-.034zm.388 3.154.186.591a4.93 4.93 0 0 1 .703-.3l-.178-.566c-.275.086-.509.18-.711.274v.001zm-3.669-2.254-.364-.591c-.202.111-.412.231-.63.369l.372.6c.21-.137.412-.266.622-.377v-.001zm1.657 3.857.388.617a4.74 4.74 0 0 1 .477-.609l-.364-.583c-.186.18-.356.377-.501.574v.001zm-1.172 2.76.655.549a7.15 7.15 0 0 1 .17-1.003l-.582-.489a8.38 8.38 0 0 0-.242.943h-.001zm-3.539-4.072-.574-.531c-.21.214-.412.429-.598.643l.622.566c.17-.231.356-.463.549-.677l.001-.001zm-2.441 3.832-.929-.36c-.153.369-.323.797-.404 1.029l.929.36c.105-.291.275-.711.404-1.029zm5.859 2.417c.016.454.057.823.097 1.08l.97.369a11.997 11.997 0 0 1-.194-1.114l-.873-.335z"/></symbol><symbol id="smartphone" viewBox="0 0 32 32"><path d="M23 0H9C7.346 0 6 1.346 6 3v26c0 1.654 1.346 3 3 3h14c1.654 0 3-1.346 3-3V3c0-1.654-1.346-3-3-3zM9 2h14a1 1 0 0 1 1 1v21H8V3a1 1 0 0 1 1-1zm14 28H9a1 1 0 0 1-1-1v-3h16v3a1 1 0 0 1-1 1z"/><path d="M10.707 27.478c.391.365.391.956 0 1.321s-1.024.365-1.414 0c-.391-.365-.391-.956 0-1.321s1.024-.365 1.414 0z"/></symbol><symbol id="twitter" viewBox="0 0 32 32"><path d="M32 6.078c-1.19.522-2.458.868-3.78 1.036a6.523 6.523 0 0 0 2.886-3.626 13.11 13.11 0 0 1-4.16 1.588A6.574 6.574 0 0 0 22.154 3c-3.632 0-6.556 2.948-6.556 6.562 0 .52.044 1.02.152 1.496-5.454-.266-10.28-2.88-13.522-6.862a6.605 6.605 0 0 0-.898 3.316 6.57 6.57 0 0 0 2.914 5.452 6.479 6.479 0 0 1-2.964-.808v.072c0 3.188 2.274 5.836 5.256 6.446a6.548 6.548 0 0 1-1.72.216 5.8 5.8 0 0 1-1.242-.112c.85 2.598 3.262 4.508 6.13 4.57a13.182 13.182 0 0 1-8.134 2.798c-.538 0-1.054-.024-1.57-.09A18.469 18.469 0 0 0 10.064 29c12.072 0 18.672-10 18.672-18.668 0-.29-.01-.57-.024-.848A13.087 13.087 0 0 0 32 6.078z"/></symbol><symbol id="ubereats" viewBox="0 0 32 32"><path d="M0 3.667v6.787c0 2.56 1.787 4.253 4.107 4.253 1.133 0 2.147-.44 2.867-1.2v1.013h1.613V3.667H6.96v6.693c0 1.72-1.16 2.88-2.667 2.88-1.52 0-2.667-1.133-2.667-2.88V3.667H0zm9.8 0V14.52h1.533v-1a3.933 3.933 0 0 0 2.821 1.187h.02-.001.027a4.12 4.12 0 0 0 4.12-4.12v-.014.001-.013a4.12 4.12 0 0 0-4.12-4.12h-.028.001c-1.107 0-2.093.453-2.84 1.173V3.667H9.8zm13.213 2.786c-2.347 0-4.067 1.88-4.067 4.107 0 2.36 1.827 4.107 4.2 4.107 1.44 0 2.627-.613 3.413-1.667l-1.133-.84c-.587.787-1.36 1.173-2.28 1.173-1.333 0-2.4-.973-2.613-2.253h6.427v-.52c0-2.347-1.667-4.107-3.947-4.107zm8.254.094c-.867 0-1.493.4-1.88 1.04v-.973h-1.56v7.907H29.4v-4.52c0-1.2.747-2 1.76-2h.653V6.548h-.547l.001-.001zm-8.294 1.266c1.173 0 2.147.813 2.413 2.027h-4.827c.28-1.213 1.253-2.027 2.413-2.027h.001zm-8.906.027c1.48 0 2.707 1.2 2.707 2.733 0 1.52-1.227 2.76-2.707 2.76h-.014a2.72 2.72 0 0 1-2.72-2.72v-.042.002a2.72 2.72 0 0 1 2.733-2.733h.001zM0 17.28v10.853h7.627V26.28h-5.56v-2.693H7.48v-1.8H2.067v-2.653h5.56v-1.853L0 17.28zm19.413.56v2.28h-1.547v1.813h1.547V26.2c0 1.08.76 1.933 2.133 1.933h2.187V26.32h-1.52c-.467 0-.76-.213-.76-.64v-3.747h2.28V20.12h-2.28v-2.28h-2.04zm-6.986 2.08c-2.387 0-4.267 1.867-4.267 4.213 0 2.333 1.88 4.2 4.267 4.2.96 0 1.853-.333 2.56-.92v.72h2.027V20.12h-2.027v.72a3.926 3.926 0 0 0-2.533-.92h-.028.001zm15.626 0c-2.12 0-3.6.867-3.6 2.56 0 1.16.813 1.92 2.573 2.293l1.933.453c.76.147.96.347.96.667 0 .493-.587.813-1.507.813-1.16 0-1.827-.267-2.093-1.147h-2.04c.293 1.667 1.533 2.773 4.067 2.773 2.32 0 3.653-1.107 3.653-2.653 0-1.093-.773-1.907-2.413-2.253l-1.72-.36c-1-.187-1.32-.4-1.32-.747 0-.48.48-.773 1.373-.773.96 0 1.667.267 1.867 1.12h2.027c-.107-1.64-1.32-2.747-3.76-2.747v.001zM12.6 21.68c1.347 0 2.427 1.08 2.427 2.453s-1.08 2.44-2.427 2.44h-.013a2.427 2.427 0 0 1-2.427-2.427v-.014.001a2.444 2.444 0 0 1 2.44-2.453z"/></symbol><symbol id="applepay" viewBox="0 0 32 32"><path d="M5.851 11.045c-.376.449-.976.803-1.576.752-.075-.607.219-1.251.563-1.649.376-.461 1.032-.788 1.563-.815.063.632-.181 1.251-.549 1.712h-.001zm.542.872c-.868-.051-1.613.5-2.024.5-.42 0-1.051-.475-1.739-.461-.893.013-1.724.524-2.18 1.34-.939 1.629-.244 4.044.661 5.371.444.657.976 1.377 1.676 1.352.661-.025.924-.436 1.724-.436.807 0 1.037.436 1.739.424.724-.013 1.18-.657 1.624-1.315.507-.747.713-1.472.725-1.511-.013-.013-1.4-.549-1.413-2.167-.012-1.353 1.093-1.997 1.144-2.035-.624-.936-1.6-1.037-1.937-1.063v.001zm5.02-1.832v9.852h1.513v-3.368h2.093c1.912 0 3.256-1.328 3.256-3.248s-1.319-3.236-3.205-3.236h-3.657zm1.514 1.29h1.744c1.312 0 2.061.707 2.061 1.952s-.749 1.96-2.068 1.96h-1.739l.002-3.912zm8.112 8.637c.951 0 1.832-.485 2.232-1.257h.031v1.183h1.4v-4.904c0-1.421-1.125-2.339-2.856-2.339-1.607 0-2.793.929-2.837 2.205h1.363c.112-.607.668-1.004 1.431-1.004.925 0 1.444.436 1.444 1.239v.543l-1.888.115c-1.756.107-2.707.833-2.707 2.097 0 1.276.981 2.123 2.388 2.123l-.001-.001zm.406-1.168c-.807 0-1.32-.392-1.32-.992 0-.62.495-.98 1.439-1.037l1.68-.107v.556c0 .923-.773 1.58-1.799 1.58zm5.126 3.773c1.475 0 2.168-.569 2.773-2.295L32 12.789h-1.537l-1.781 5.82h-.031l-1.781-5.82h-1.581l2.561 7.173-.137.436c-.231.739-.605 1.023-1.275 1.023a4.94 4.94 0 0 1-.444-.025v1.183c.088.025.463.037.577.039v-.001z"/></symbol><symbol id="email" viewBox="0 0 32 32"><path d="M26.667 5.333H5.334A2.663 2.663 0 0 0 2.681 8l-.013 16c0 1.467 1.2 2.667 2.667 2.667h21.333c1.467 0 2.667-1.2 2.667-2.667V8c0-1.467-1.2-2.667-2.667-2.667zM26.133 11l-9.427 5.893a1.346 1.346 0 0 1-1.413 0L5.866 11a1.132 1.132 0 1 1 1.2-1.92l8.933 5.587 8.933-5.587a1.132 1.132 0 1 1 1.2 1.92z"/></symbol><symbol id="envelope" viewBox="0 0 32 32"><path d="M29 4H3C1.346 4 0 5.346 0 7v18c0 1.654 1.346 3 3 3h26c1.654 0 3-1.346 3-3V7c0-1.654-1.346-3-3-3zm0 2c.136 0 .265.028.383.077L16 17.676 2.617 6.077A.996.996 0 0 1 3 6h26zm0 20H3a1 1 0 0 1-1-1V8.19l13.345 11.565a.998.998 0 0 0 1.31 0L30 8.19V25a1 1 0 0 1-1 1z"/></symbol><symbol id="facebook" viewBox="0 0 32 32"><path d="M21.329 5.313h2.921V.225C23.746.156 22.013 0 19.994 0c-4.212 0-7.097 2.649-7.097 7.519V12H8.249v5.688h4.648V32h5.699V17.689h4.46l.708-5.688h-5.169V8.082c.001-1.644.444-2.769 2.735-2.769z"/></symbol><symbol id="googlepay" viewBox="0 0 32 32"><path d="m32 13.333-4.179 9.333H26.53l1.551-3.267-2.748-6.067h1.36l1.987 4.653h.027l1.931-4.653 1.362.001zm-17.356 2.888V20h-1.311v-9.333h3.476l.082-.001c.831 0 1.59.306 2.171.812l-.004-.003c.611.503.953 1.22.941 1.971v.03c0 .788-.366 1.49-.937 1.946l-.005.004c-.607.531-1.357.795-2.249.795h-2.164zm-.003-4.405v3.259h2.197c.487.013.957-.163 1.297-.483.336-.3.527-.711.527-1.141s-.191-.84-.527-1.14a1.784 1.784 0 0 0-1.237-.496l-.064.001h-2.193zm7.988 1.517c.836 0 1.496.232 1.98.696.483.464.724 1.101.724 1.909v3.857h-1.081v-.869h-.049c-.468.716-1.091 1.073-1.867 1.073-.664 0-1.219-.204-1.667-.613a1.986 1.986 0 0 1-.67-1.489l.001-.046v.002c0-.647.236-1.161.707-1.544s1.1-.573 1.887-.575c.671 0 1.224.128 1.657.383V15.835c0-.408-.18-.775-.465-1.024l-.002-.001a1.56 1.56 0 0 0-1.078-.429h-.014.001c-.632 0-1.132.277-1.499.831l-.996-.651c.547-.817 1.357-1.227 2.431-1.227v-.001zm-1.462 4.547v.009c0 .308.147.582.374.756l.002.002c.249.204.56.312.879.307.476-.001.933-.2 1.271-.549.346-.32.563-.777.563-1.284v-.005c-.353-.293-.844-.439-1.475-.439-.46 0-.843.116-1.149.347-.309.232-.464.516-.464.857l-.001-.001zM5.441 10.667h.067c1.379 0 2.635.528 3.577 1.393l-.004-.003-1.552 1.523a2.975 2.975 0 0 0-2.035-.8l-.056.001h.003a3.251 3.251 0 0 0-3.048 2.177l-.007.023a3.134 3.134 0 0 0 .007 2.064l-.007-.022a3.256 3.256 0 0 0 3.054 2.2h.001c.735 0 1.364-.184 1.853-.508a2.47 2.47 0 0 0 1.085-1.623H5.44v-2.053h5.132c.063.359.093.72.093 1.084 0 1.623-.592 2.996-1.619 3.924-.901.816-2.139 1.288-3.607 1.288h-.022a5.454 5.454 0 0 1-4.825-2.909l-.014-.03c-.365-.696-.579-1.52-.579-2.395s.214-1.699.593-2.424l-.014.029c.929-1.76 2.746-2.939 4.839-2.939h.024z"/></symbol><symbol id="instagram" viewBox="0 0 32 32"><path d="M31.969 9.408c-.075-1.7-.35-2.869-.744-3.882a7.806 7.806 0 0 0-1.851-2.838A7.867 7.867 0 0 0 26.542.844C25.523.45 24.36.175 22.66.1 20.947.019 20.403 0 16.059 0s-4.888.019-6.595.094c-1.7.075-2.869.35-3.882.744a7.803 7.803 0 0 0-2.838 1.85A7.867 7.867 0 0 0 .9 5.52C.506 6.539.231 7.702.156 9.402c-.081 1.713-.1 2.257-.1 6.601s.019 4.888.094 6.595c.075 1.7.35 2.869.744 3.882a7.895 7.895 0 0 0 1.85 2.838 7.867 7.867 0 0 0 2.832 1.844c1.019.394 2.182.669 3.882.744 1.706.075 2.25.094 6.595.094s4.888-.019 6.595-.094c1.7-.075 2.869-.35 3.882-.744a8.184 8.184 0 0 0 4.682-4.682c.394-1.019.669-2.182.744-3.882.075-1.707.094-2.251.094-6.595s-.006-4.888-.081-6.595zm-2.882 13.065c-.069 1.563-.331 2.407-.55 2.969a5.31 5.31 0 0 1-3.038 3.038c-.563.219-1.413.481-2.969.55-1.688.075-2.194.094-6.464.094s-4.782-.019-6.464-.094c-1.563-.069-2.407-.331-2.969-.55a4.926 4.926 0 0 1-1.838-1.194 4.974 4.974 0 0 1-1.194-1.838c-.219-.563-.481-1.413-.55-2.969-.075-1.688-.094-2.194-.094-6.464s.019-4.782.094-6.464c.069-1.563.331-2.407.55-2.969a4.868 4.868 0 0 1 1.2-1.838A4.974 4.974 0 0 1 6.639 3.55c.563-.219 1.413-.481 2.969-.55 1.688-.075 2.194-.094 6.464-.094 4.276 0 4.782.019 6.464.094 1.563.069 2.407.331 2.969.55a4.914 4.914 0 0 1 1.838 1.194 4.974 4.974 0 0 1 1.194 1.838c.219.563.481 1.413.55 2.969.075 1.688.094 2.194.094 6.464s-.019 4.77-.094 6.458z"/><path d="M16.059 7.783c-4.538 0-8.22 3.682-8.22 8.22s3.682 8.22 8.22 8.22c4.539 0 8.22-3.682 8.22-8.22s-3.682-8.22-8.22-8.22zm0 13.552a5.333 5.333 0 0 1 0-10.664 5.333 5.333 0 0 1 0 10.664zM26.524 7.458a1.919 1.919 0 1 1-3.838 0 1.919 1.919 0 0 1 3.838 0z"/></symbol><symbol id="leaf" viewBox="0 0 32 32"><path d="M20.476 28.443c-.336.114-.783.114-1.118.23.336-.116.783-.23 1.118-.23zM29.763 19.497c-.111.458-.225.802-.336 1.146.111-.344.225-.802.336-1.146zM29.317 20.76l-.671 1.376c.222-.344.447-.804.671-1.376zM30.099 18.007c0 .344-.111.688-.225 1.032.113-.344.113-.688.225-1.032zM30.211 16.057c0 .458 0 1.032-.111 1.49.111-.458.111-1.032.111-1.49zM19.247 28.557c-.449.116-.896.116-1.343.116.447 0 .894 0 1.343-.116zM29.875 19.039c0 .114-.111.23-.111.344 0-.116 0-.23.111-.344zM30.099 17.547c0 .114 0 .23-.111.458.111-.228.111-.342.111-.458zM20.589 28.329c-.113 0-.113.114 0 0-.113 0-.113.114 0 0zM29.317 20.644c0 .114 0 .114-.111.23.111-.114.111-.23.111-.23z"/><path d="M27.303 24.2c-3.581-4.359-8.616-9.176-12.195-12.5-.225-.23-.336-.458-.336-.802 0-.688.447-1.146 1.118-1.146.224 0 .56.114.783.23h.111c5.035 4.703 9.063 8.716 11.973 12.156.225-.458.447-.918.671-1.376 0 0 0-.114.111-.23.111-.344.225-.802.336-1.146 0-.114.111-.23.111-.344.111-.344.111-.688.224-1.032 0-.114 0-.23.111-.458-.111-.462-.111-1.037-.111-1.495 0-8.946-9.174-13.649-17.902-13.762C4.363 2.181-.001.001-.001.001s1.118 11.698 3.468 18.235c2.687 7.455 7.609 10.438 14.436 10.438.447 0 .896 0 1.343-.114h.111c.336 0 .783-.114 1.118-.23h.111c.783-.23 1.567-.458 2.35-.802.671-.344 1.343-.688 2.014-1.146 2.239 2.639 3.692 4.703 3.692 5.619h3.357c-.111-1.722-2.012-4.703-4.697-7.799z"/></symbol><symbol id="linkedin" viewBox="0 0 32 32"><path d="M31.992 32v-.001H32V20.263c0-5.741-1.236-10.164-7.948-10.164-3.227 0-5.392 1.771-6.276 3.449h-.093v-2.913h-6.364v21.364h6.627V21.42c0-2.785.528-5.479 3.977-5.479 3.399 0 3.449 3.179 3.449 5.657v10.401h6.62zM.528 10.636h6.635V32H.528V10.636zM3.843 0C1.722 0 0 1.721 0 3.843s1.721 3.879 3.843 3.879c2.121 0 3.843-1.757 3.843-3.879A3.846 3.846 0 0 0 3.843 0z"/></symbol></defs></svg>