<svg width="24" height="24" viewBox="0 0 24 24" fill="none" xmlns="http://www.w3.org/2000/svg">
<path d="M15.357 21.3323C15.1052 21.4178 14.7701 21.4178 14.5183 21.5049C14.7701 21.4178 15.1052 21.3323 15.357 21.3323Z" fill="white"/>
<path d="M22.3226 14.6231C22.2392 14.9667 22.1542 15.2247 22.0708 15.4827C22.1542 15.2247 22.2392 14.8812 22.3226 14.6231Z" fill="white"/>
<path d="M21.9876 15.5699C21.8193 15.9134 21.6525 16.2585 21.4841 16.602C21.6509 16.344 21.8193 15.9989 21.9876 15.5699Z" fill="white"/>
<path d="M22.5744 13.5055C22.5744 13.7635 22.491 14.0216 22.406 14.2796C22.491 14.0216 22.491 13.7635 22.5744 13.5055Z" fill="white"/>
<path d="M22.406 14.2796C22.406 14.3651 22.3228 14.4522 22.3228 14.5377C22.3228 14.4506 22.3226 14.3651 22.406 14.2796Z" fill="white"/>
<path d="M22.5745 13.1603C22.5745 13.2458 22.5744 13.3329 22.491 13.5038C22.5744 13.3329 22.5745 13.2474 22.5745 13.1603Z" fill="white"/>
<path d="M21.9874 15.4827C21.9874 15.5682 21.9874 15.5682 21.9041 15.6553C21.9874 15.5698 21.9874 15.4827 21.9874 15.4827Z" fill="white"/>
<path d="M20.477 18.1503C17.7911 14.8812 14.0148 11.2685 11.3305 8.77517C11.1621 8.6026 11.0787 8.43165 11.0787 8.17361C11.0787 7.65752 11.4139 7.31401 11.9174 7.31401C12.0857 7.31401 12.3375 7.39948 12.5043 7.48658H12.5877C16.364 11.0138 19.385 14.0232 21.5674 16.6037C21.7358 16.2602 21.9026 15.915 22.0709 15.5715C22.0709 15.5715 22.0709 15.486 22.1543 15.3989C22.2377 15.1409 22.3227 14.7974 22.4061 14.5393C22.4061 14.4538 22.4895 14.3667 22.4895 14.2813C22.5729 14.0232 22.5729 13.7652 22.6578 13.5071C22.6578 13.4217 22.6578 13.3346 22.7412 13.1636C22.6578 12.8169 22.6579 12.3862 22.6579 12.0427C22.6579 5.33345 15.7771 1.80633 9.2315 1.72086C3.2728 1.63538 0 0 0 0C0 0 0.838642 8.77359 2.60092 13.6765C4.61652 19.268 8.30791 21.5049 13.428 21.5049C13.7631 21.5049 14.0998 21.505 14.4349 21.4195H14.5183C14.7701 21.4195 15.1052 21.334 15.357 21.247H15.4404C16.0273 21.0744 16.6158 20.9034 17.2027 20.6454C17.7062 20.3873 18.2097 20.1293 18.7132 19.7858C20.3921 21.7647 21.4825 23.313 21.4825 24H24C23.9166 22.7082 22.491 20.4727 20.477 18.1503Z" fill="white"/>
</svg>
