<svg width="70" height="70" viewBox="0 0 70 70" fill="none" xmlns="http://www.w3.org/2000/svg">
<g clip-path="url(#clip0_501234_583)">
<path d="M35.0004 25.3149C40.5554 25.3149 45.0452 20.7497 45.0452 15.1396C45.0446 9.52273 40.5554 4.98193 35.0004 4.98193C29.4453 4.98193 24.9556 9.52273 24.9556 15.1396C24.955 20.7497 29.4453 25.3149 35.0004 25.3149Z" fill="#EC3C05"/>
<path d="M52.8911 51.7758C55.6607 49.2778 57.301 46.1754 57.301 42.8143C57.301 34.5538 47.3928 27.8567 35.171 27.8567C35.1131 27.8567 35.057 27.8591 34.9997 27.8597C34.9424 27.8591 34.8863 27.8567 34.8277 27.8567C22.6066 27.8567 12.6984 34.5532 12.6984 42.8143C12.6984 46.176 14.3387 49.2785 17.1083 51.7758C10.3538 53.4386 6 56.0415 6 58.9688C6 63.9915 13.2021 67.9211 34.8284 64.9602C34.8875 64.9693 34.9418 64.9754 35.0003 64.9858C35.0588 64.9754 35.1131 64.9693 35.1717 64.9602C56.7992 67.9211 64.0006 63.9915 64.0006 58.9688C64 56.0415 59.6462 53.4386 52.8911 51.7758ZM50.7441 44.4924C50.6679 44.4882 50.5917 44.4802 50.5154 44.4802C48.3385 44.4802 46.572 46.2462 46.572 48.4239C46.572 50.6003 48.3379 52.3656 50.5154 52.3656C50.5917 52.3656 50.6679 52.3583 50.7441 52.354V56.5551L35.0003 62.0395L19.2577 56.5551V52.354C19.3333 52.3583 19.409 52.3656 19.4858 52.3656C21.6633 52.3656 23.428 50.6003 23.428 48.4239C23.428 46.2462 21.6633 44.4802 19.4858 44.4802C19.409 44.4802 19.3333 44.4882 19.2577 44.4924V35.5737L35.0003 40.7032L50.7441 35.5737V44.4924Z" fill="black"/>
</g>
<defs>
<clipPath id="clip0_501234_583">
<rect width="58" height="61" fill="white" transform="translate(6 4.98193)"/>
</clipPath>
</defs>
</svg>
