<svg width="70" height="70" viewBox="0 0 70 70" fill="none" xmlns="http://www.w3.org/2000/svg">
<g clip-path="url(#clip0_501234_557)">
<path d="M45.198 16.9705V20.425C45.198 21.392 45.9653 22.1779 46.9089 22.1779H56.928C57.8798 22.1779 58.6401 21.392 58.6401 20.425V16.9705H45.198Z" fill="black"/>
<path d="M58.6272 28.1622H53.4998C52.7331 28.1622 52.1277 28.7888 52.1277 29.5605V33.4003C52.1277 34.1796 52.7331 34.7991 53.4998 34.7991H58.6272C59.3945 34.7991 59.9993 34.1796 59.9993 33.4003V29.5605C59.9999 28.7888 59.3951 28.1622 58.6272 28.1622Z" fill="black"/>
<path d="M58.6272 47.9951H53.4998C52.7331 47.9951 52.1277 48.6151 52.1277 49.4004V53.2337C52.1277 54.0054 52.7331 54.6402 53.4998 54.6402H58.6272C59.3945 54.6402 59.9993 54.0054 59.9993 53.2337V49.4004C59.9999 48.6146 59.3951 47.9951 58.6272 47.9951Z" fill="#EC3C05"/>
<path d="M53.167 57.3696H17.5613C16.8092 57.3696 16.1892 57.9897 16.1892 58.7596V62.6076C16.1892 63.3781 16.8092 63.9988 17.5613 63.9988H53.167C53.9191 63.9988 54.5245 63.3775 54.5245 62.6076V58.7596C54.5245 57.9897 53.9191 57.3696 53.167 57.3696Z" fill="black"/>
<path d="M18.8711 53.2354V49.3951C18.8711 48.6163 18.2517 47.9968 17.499 47.9968H12.3558C11.6107 47.9968 11.0059 48.6163 11.0059 49.3951V53.2354C11.0059 54.006 11.6113 54.6414 12.3558 54.6414H17.4984C18.2511 54.6414 18.8711 54.006 18.8711 53.2354Z" fill="#EC3C05"/>
<path d="M12.3575 34.7979H17.5001C18.2522 34.7979 18.8722 34.1778 18.8722 33.3996V29.5599C18.8722 28.7876 18.2528 28.161 17.5001 28.161H12.3575C11.6054 28.1616 11 28.7882 11 29.5605V33.4002C11 34.1784 11.6054 34.7979 12.3575 34.7979Z" fill="black"/>
<path d="M13.5114 22.1831H23.5229C24.4741 22.1831 25.2414 21.3961 25.2414 20.4291V16.9752H11.7993V20.4291C11.7993 21.3961 12.559 22.1831 13.5114 22.1831Z" fill="black"/>
<path d="M48.3533 28.1622H43.2113C42.4586 28.1622 41.8538 28.7888 41.8538 29.5605V33.4003C41.8538 34.1796 42.4586 34.7991 43.2113 34.7991H48.3533C49.1054 34.7991 49.7114 34.1796 49.7114 33.4003V29.5605C49.7114 28.7888 49.1054 28.1622 48.3533 28.1622Z" fill="#EC3C05"/>
<path d="M54.9104 43.3588V39.5185C54.9104 38.7545 54.2905 38.1196 53.5383 38.1196H48.3964C47.6506 38.1196 47.0464 38.7545 47.0464 39.5185V43.3588C47.0464 44.1447 47.6506 44.7648 48.3964 44.7648H53.5383C54.2899 44.7648 54.9104 44.1447 54.9104 43.3588Z" fill="#EC3C05"/>
<path d="M43.209 54.639H48.3516C49.1043 54.639 49.7097 54.003 49.7097 53.2325V49.3998C49.7097 48.6134 49.1043 47.9933 48.3516 47.9933H43.209C42.4569 47.9933 41.8521 48.6134 41.8521 49.3998V53.2325C41.8521 54.003 42.4569 54.639 43.209 54.639Z" fill="black"/>
<path d="M44.6212 43.3588V39.5185C44.6212 38.7545 44.017 38.1196 43.2637 38.1196H38.1217C37.3766 38.1196 36.7566 38.7545 36.7566 39.5185V43.3588C36.7566 44.1447 37.376 44.7648 38.1217 44.7648H43.2637C44.017 44.7648 44.6212 44.1447 44.6212 43.3588Z" fill="black"/>
<path d="M32.9348 54.639H38.0629C38.815 54.639 39.4344 54.003 39.4344 53.2325V49.3998C39.4344 48.6134 38.815 47.9933 38.0629 47.9933H32.9348C32.1682 47.9933 31.5627 48.6134 31.5627 49.3998V53.2325C31.5627 54.003 32.1682 54.639 32.9348 54.639Z" fill="#EC3C05"/>
<path d="M38.0651 34.7979C38.8178 34.7979 39.4366 34.1778 39.4366 33.3996V29.5599C39.4366 28.7876 38.8178 28.161 38.0651 28.161H32.9376C32.1698 28.161 31.5649 28.7876 31.5649 29.5599V33.3996C31.5649 34.1778 32.1698 34.7979 32.9376 34.7979H38.0651Z" fill="black"/>
<path d="M34.3471 43.3588V39.5185C34.3471 38.7545 33.7277 38.1196 32.975 38.1196H27.833C27.0873 38.1196 26.4824 38.7545 26.4824 39.5185V43.3588C26.4824 44.1447 27.0878 44.7648 27.833 44.7648H32.975C33.7277 44.7648 34.3471 44.1447 34.3471 43.3588Z" fill="#EC3C05"/>
<path d="M22.7185 54.639H27.8605C28.6126 54.639 29.2326 54.003 29.2326 53.2325V49.3998C29.2326 48.6134 28.6126 47.9933 27.8605 47.9933H22.7185C21.9658 47.9933 21.3604 48.6134 21.3604 49.3998V53.2325C21.3609 54.003 21.9658 54.639 22.7185 54.639Z" fill="black"/>
<path d="M27.7904 34.7979C28.5425 34.7979 29.1479 34.1778 29.1479 33.3996V29.5599C29.1479 28.7876 28.5425 28.161 27.7904 28.161H22.6484C21.8951 28.161 21.2903 28.7876 21.2903 29.5599V33.3996C21.2903 34.1778 21.8951 34.7979 22.6484 34.7979H27.7904Z" fill="#EC3C05"/>
<path d="M16.1909 39.5197V43.3606C16.1909 44.1382 16.8109 44.7589 17.5636 44.7589H22.705C23.4507 44.7589 24.0556 44.1382 24.0556 43.3606V39.5197C24.0556 38.748 23.4507 38.1143 22.705 38.1143H17.5636C16.8109 38.1143 16.1909 38.7486 16.1909 39.5197Z" fill="black"/>
<path d="M25.2403 15.597C25.2403 14.5999 26.0587 12.8836 35.2291 12.8541C44.3779 12.824 45.197 14.5999 45.197 15.597V15.8849H58.6396V15.5215C58.6396 13.7296 55.4891 5 35.2291 5C14.9481 5 11.7976 13.7296 11.7976 15.5215V15.8849H25.2403V15.597Z" fill="black"/>
</g>
<defs>
<clipPath id="clip0_501234_557">
<rect width="49" height="59" fill="white" transform="translate(11 5)"/>
</clipPath>
</defs>
</svg>
