<svg aria-hidden="true" style="position: absolute; width: 0; height: 0; overflow: hidden;" version="1.1" xmlns="http://www.w3.org/2000/svg" xmlns:xlink="http://www.w3.org/1999/xlink">
<defs>
<symbol id="icon-man" viewBox="0 0 32 32">
  <path fill="#ec3c05" style="fill: var(--color1, #ec3c05)" d="M16 11.573c2.539 0 4.592-2.087 4.592-4.652-0-2.568-2.052-4.644-4.592-4.644s-4.592 2.076-4.592 4.644c-0 2.565 2.052 4.652 4.592 4.652z"></path>
  <path fill="#000" style="fill: var(--color2, #000)" d="M24.179 23.669c1.266-1.142 2.016-2.56 2.016-4.097 0-3.776-4.529-6.838-10.117-6.838-0.026 0-0.052 0.001-0.078 0.001s-0.052-0.001-0.079-0.001c-5.587 0-10.116 3.061-10.116 6.838 0 1.537 0.75 2.955 2.016 4.097-3.088 0.76-5.078 1.95-5.078 3.288 0 2.296 3.292 4.092 13.179 2.739 0.027 0.004 0.052 0.007 0.079 0.012 0.027-0.005 0.052-0.008 0.078-0.012 9.887 1.354 13.179-0.443 13.179-2.739-0-1.338-1.991-2.528-5.079-3.288zM23.197 20.339c-0.035-0.002-0.070-0.006-0.105-0.006-0.995 0-1.803 0.807-1.803 1.803s0.807 1.802 1.803 1.802c0.035 0 0.070-0.003 0.105-0.005v1.921l-7.197 2.507-7.197-2.507v-1.921c0.035 0.002 0.069 0.005 0.104 0.005 0.995 0 1.802-0.807 1.802-1.802s-0.807-1.803-1.802-1.803c-0.035 0-0.070 0.004-0.104 0.006v-4.077l7.197 2.345 7.197-2.345v4.077z"></path>
</symbol>
<symbol id="icon-phone" viewBox="0 0 32 32">
  <path fill="#000" style="fill: var(--color2, #000)" d="M20.662 7.758v1.579c0 0.442 0.351 0.801 0.782 0.801h4.58c0.435 0 0.783-0.359 0.783-0.801v-1.579h-6.145z"></path>
  <path fill="#000" style="fill: var(--color2, #000)" d="M26.801 12.874h-2.344c-0.351 0-0.627 0.286-0.627 0.639v1.755c0 0.356 0.277 0.639 0.627 0.639h2.344c0.351 0 0.627-0.283 0.627-0.639v-1.755c0-0.353-0.276-0.639-0.627-0.639z"></path>
  <path fill="#ec3c05" style="fill: var(--color1, #ec3c05)" d="M26.801 21.941h-2.344c-0.351 0-0.627 0.283-0.627 0.642v1.752c0 0.353 0.277 0.643 0.627 0.643h2.344c0.351 0 0.627-0.29 0.627-0.643v-1.752c0-0.359-0.276-0.642-0.627-0.642z"></path>
  <path fill="#000" style="fill: var(--color2, #000)" d="M24.305 26.226h-16.277c-0.344 0-0.627 0.283-0.627 0.635v1.759c0 0.352 0.283 0.636 0.627 0.636h16.277c0.344 0 0.621-0.284 0.621-0.636v-1.759c0-0.352-0.277-0.635-0.621-0.635z"></path>
  <path fill="#ec3c05" style="fill: var(--color1, #ec3c05)" d="M8.627 24.336v-1.756c0-0.356-0.283-0.639-0.627-0.639h-2.351c-0.341 0-0.617 0.283-0.617 0.639v1.756c0 0.352 0.277 0.643 0.617 0.643h2.351c0.344 0 0.628-0.29 0.628-0.643z"></path>
  <path fill="#000" style="fill: var(--color2, #000)" d="M5.649 15.908h2.351c0.344 0 0.627-0.283 0.627-0.639v-1.755c0-0.353-0.283-0.639-0.627-0.639h-2.351c-0.344 0-0.621 0.287-0.621 0.64v1.755c0 0.356 0.277 0.639 0.621 0.639z"></path>
  <path fill="#000" style="fill: var(--color2, #000)" d="M6.177 10.141h4.577c0.435 0 0.786-0.36 0.786-0.802v-1.579h-6.145v1.579c0 0.442 0.347 0.802 0.783 0.802z"></path>
  <path fill="#ec3c05" style="fill: var(--color1, #ec3c05)" d="M22.104 12.874h-2.351c-0.344 0-0.621 0.286-0.621 0.639v1.755c0 0.356 0.276 0.639 0.621 0.639h2.351c0.344 0 0.621-0.283 0.621-0.639v-1.755c0-0.353-0.277-0.639-0.621-0.639z"></path>
  <path fill="#ec3c05" style="fill: var(--color1, #ec3c05)" d="M25.102 19.821v-1.756c0-0.349-0.283-0.64-0.627-0.64h-2.351c-0.341 0-0.617 0.29-0.617 0.639v1.756c0 0.359 0.276 0.643 0.617 0.643h2.351c0.344 0 0.627-0.283 0.627-0.643z"></path>
  <path fill="#000" style="fill: var(--color2, #000)" d="M19.753 24.978h2.351c0.344 0 0.621-0.291 0.621-0.643v-1.752c0-0.36-0.277-0.643-0.621-0.643h-2.351c-0.344 0-0.62 0.283-0.62 0.643v1.752c0 0.352 0.276 0.643 0.62 0.643z"></path>
  <path fill="#000" style="fill: var(--color2, #000)" d="M20.398 19.821v-1.756c0-0.349-0.276-0.64-0.621-0.64h-2.351c-0.341 0-0.624 0.29-0.624 0.639v1.756c0 0.359 0.283 0.643 0.624 0.643h2.351c0.344 0 0.621-0.283 0.621-0.643z"></path>
  <path fill="#ec3c05" style="fill: var(--color1, #ec3c05)" d="M15.056 24.978h2.344c0.344 0 0.627-0.291 0.627-0.643v-1.752c0-0.36-0.283-0.643-0.627-0.643h-2.344c-0.35 0-0.627 0.283-0.627 0.643v1.752c0 0.352 0.277 0.643 0.627 0.643z"></path>
  <path fill="#000" style="fill: var(--color2, #000)" d="M17.401 15.908c0.344 0 0.627-0.283 0.627-0.639v-1.755c0-0.353-0.283-0.639-0.627-0.639h-2.344c-0.351 0-0.628 0.286-0.628 0.639v1.755c0 0.356 0.277 0.639 0.628 0.639h2.344z"></path>
  <path fill="#ec3c05" style="fill: var(--color1, #ec3c05)" d="M15.702 19.821v-1.756c0-0.349-0.283-0.64-0.627-0.64h-2.351c-0.341 0-0.617 0.29-0.617 0.639v1.756c0 0.359 0.277 0.643 0.617 0.643h2.351c0.344 0 0.627-0.283 0.627-0.643z"></path>
  <path fill="#000" style="fill: var(--color2, #000)" d="M10.386 24.978h2.351c0.344 0 0.627-0.291 0.627-0.643v-1.752c0-0.36-0.283-0.643-0.627-0.643h-2.351c-0.344 0-0.621 0.283-0.621 0.643v1.752c0 0.352 0.277 0.643 0.621 0.643z"></path>
  <path fill="#ec3c05" style="fill: var(--color1, #ec3c05)" d="M12.704 15.908c0.344 0 0.621-0.283 0.621-0.639v-1.755c0-0.353-0.277-0.639-0.621-0.639h-2.351c-0.344 0-0.621 0.286-0.621 0.639v1.755c0 0.356 0.276 0.639 0.621 0.639h2.351z"></path>
  <path fill="#000" style="fill: var(--color2, #000)" d="M7.402 18.066v1.756c0 0.355 0.283 0.639 0.628 0.639h2.35c0.341 0 0.617-0.284 0.617-0.639v-1.756c0-0.353-0.277-0.642-0.617-0.642h-2.35c-0.344 0-0.628 0.29-0.628 0.642z"></path>
  <path fill="#000" style="fill: var(--color2, #000)" d="M11.538 7.13c0-0.456 0.374-1.24 4.566-1.254 4.182-0.014 4.557 0.798 4.557 1.254v0.132h6.145v-0.166c0-0.819-1.44-4.81-10.702-4.81-9.271 0-10.712 3.991-10.712 4.81v0.166h6.145v-0.132z"></path>
</symbol>
<symbol id="icon-desk" viewBox="0 0 32 32">
  <path fill="#ec3c05" style="fill: var(--color1, #ec3c05)" d="M18.693 4.702l-1.84-1.577c-0.202-0.175-0.504-0.175-0.706 0l-1.9 1.629c-0.173 0.148-0.235 0.387-0.156 0.6s0.281 0.354 0.509 0.354h0.543v1.086c0 0.3 0.243 0.543 0.543 0.543h1.629c0.3 0 0.543-0.243 0.543-0.543v-1.086h0.543c0.004 0.001 0.008 0.001 0.011 0 0.3 0 0.543-0.243 0.543-0.543 0-0.196-0.105-0.368-0.26-0.464z"></path>
  <path fill="#ec3c05" style="fill: var(--color1, #ec3c05)" d="M14.317 27.344l1.84 1.577c0.202 0.175 0.504 0.175 0.706 0l1.9-1.629c0.173-0.147 0.235-0.387 0.156-0.6s-0.281-0.354-0.509-0.354h-0.543v-1.086c0-0.3-0.243-0.543-0.543-0.543h-1.629c-0.3 0-0.543 0.243-0.543 0.543v1.086h-0.543c-0.004-0.001-0.008-0.001-0.011 0-0.3 0-0.543 0.243-0.543 0.543 0 0.196 0.104 0.368 0.26 0.464z"></path>
  <path fill="#ec3c05" style="fill: var(--color1, #ec3c05)" d="M27.549 18.477l1.577-1.84c0.175-0.202 0.175-0.504 0-0.706l-1.629-1.9c-0.147-0.173-0.387-0.235-0.6-0.156s-0.354 0.282-0.354 0.509v0.543h-1.086c-0.3 0-0.543 0.243-0.543 0.543v1.629c0 0.3 0.243 0.543 0.543 0.543h1.086v0.543c-0.001 0.004-0.001 0.008 0 0.011 0 0.3 0.243 0.543 0.543 0.543 0.196 0 0.368-0.104 0.464-0.26z"></path>
  <path fill="#ec3c05" style="fill: var(--color1, #ec3c05)" d="M4.908 14.101l-1.577 1.84c-0.175 0.202-0.175 0.504 0 0.706l1.629 1.9c0.147 0.173 0.387 0.235 0.6 0.156s0.354-0.281 0.354-0.509v-0.543h1.086c0.3 0 0.543-0.243 0.543-0.543v-1.629c0-0.3-0.243-0.543-0.543-0.543h-1.086v-0.543c0.001-0.004 0.001-0.008 0-0.011 0-0.3-0.243-0.543-0.543-0.543-0.196-0-0.368 0.104-0.464 0.26z"></path>
  <path fill="#000" style="fill: var(--color2, #000)" d="M21.098 23.492l-1.058-4.229 1.065-5.856c0.054-0.295-0.142-0.577-0.437-0.631-0.294-0.057-0.577 0.142-0.631 0.437l-1.005 5.525h-3.347c-0.3 0-0.543 0.243-0.543 0.543s0.243 0.543 0.543 0.543h0.391l-0.917 3.669c-0.073 0.29 0.104 0.585 0.395 0.658 0.044 0.011 0.088 0.016 0.132 0.016 0.244 0 0.464-0.164 0.526-0.411l0.983-3.932h1.867l0.983 3.932c0.061 0.247 0.283 0.411 0.526 0.411 0.043 0 0.088-0.006 0.132-0.016 0.291-0.072 0.468-0.367 0.395-0.658z"></path>
  <path fill="#000" style="fill: var(--color2, #000)" d="M18.579 18.194l0.395-2.171h-10.345v8.143h1.629v-5.972h8.322z"></path>
  <path fill="#000" style="fill: var(--color2, #000)" d="M21.181 16.023l-0.395 2.171h1.414v5.972h1.629v-8.143h-2.647z"></path>
  <path fill="#000" style="fill: var(--color2, #000)" d="M15.686 13.309v-4.886h-5.972v4.886h2.171v0.543c0 0.494-0.248 0.543-1.086 0.543-1.115 0-1.086 0.591-1.086 1.086h5.972c0-0.494 0-1.086-1.086-1.086-0.838 0-1.086-0.049-1.086-0.543v-0.543h2.172zM10.8 12.223v-2.714h3.8v2.714h-3.8z"></path>
</symbol>
<symbol id="icon-hands" viewBox="0 0 32 32">
  <path fill="#ec3c05" style="fill: var(--color1, #ec3c05)" d="M29.666 9.876c-1.598 0.945-2.458 1.331-4.114 1.244-0.623-0.007-0.953-0.276-1.569-0.218-0.573 0.022-0.867 0.24-1.441 0.436-0.881 0.276-1.362 0.524-2.286 0.815-0.587 0.167-0.96 0.175-1.569 0.385-0.523 0.225-0.272 0.044-0.638 0.472-0.473 0.531-0.358 0.945-0.803 1.854-0.552 1.193-0.488 1.352-0.172 1.498-0.208 0.61-0.258 1.018-0.208 1.679 0.057 0.502-0.15 0.85 0.38 1.25 0.724 0.546 2.243 1.825 2.631 1.846 0.58-0.021 2.272 0.044 3.132-0.559 0.194-0.124 0.251-0.247 0.086 0.218-0.035 0.058-2.143 1.723-2.372 1.715-1.623 0.053-1.935 0.13-1.964 0.168-0.187-0.073-1.43-1.579-2.192-1.026-0.294 0.182-0.43 0.357-0.545 0.684 0.1 0.211 0.574 0.546 1.010 0.822 0.631 0.408 0.688 0.836 1.319 0.989 0.767 0.174 1.584 0.058 2.071 0.123 0.187 0.051 1.878-0.451 2.931-1.025 0.975-0.509-1.34 0.982-1.906 1.716-1.706 0.546-1.225 0.567-2.035 0.735-0.752 0.174-0.717 0.131-1.233 0.298-0.53 0.131-0.968 0.865-0.465 1.25 0.301 0.255 1.24-0.102 2.164-0.131 0.409-0.007 2.078-0.785 2.458-0.988 0.946-0.516 1.641-1.229 2.2-1.636 0.774-0.545-0.874 1.505-1.57 2.363-0.201 0.277-0.294 0.334-0.544 0.691-0.415 0.546 0.114 1.375 0.379 1.244 0.308-0.116 0.509-0.741 0.846-0.945 0.172-0.095 0.631-0.778 1.061-1.244 0.315-0.363 0.545-0.523 0.846-0.901 0.509-0.64 0.616-1.127 1.061-1.811 0.272-0.357 0.465-0.465 0.716-0.901 1.326-2.545 0.939-3.686 2.208-5.504 0.387-0.538 0.824-0.669 1.441-0.989 0.573-4.239-1.326-6.609-1.312-6.616zM23.517 16.623c-0.301 1.069-0.272 1.192-0.846 1.592-0.695 0.538-0.731 0.131-2.329 1.032 0 0-0.66-0.698-1.699-1.032 0.007 0.015-0.28-1.352-0.846-1.811 1.347-1.040 1.311-1.919 1.526-1.89 0.48 0.044 1.247 0.291 2.666-0.254 0.817 1.578 1.806 1.498 1.526 2.363z"></path>
  <path fill="#000" style="fill: var(--color2, #000)" d="M15.426 8.886c-0.631-0.429-0.695-0.858-1.319-0.996-0.767-0.189-1.591-0.073-2.071-0.167-0.186-0.022-1.877 0.48-2.924 1.032-0.989 0.531 1.333-0.96 1.906-1.723 1.698-0.516 1.211-0.538 2.035-0.727 0.745-0.152 0.709-0.109 1.225-0.262 0.523-0.145 0.967-0.873 0.466-1.287-0.308-0.233-1.24 0.124-2.157 0.131-0.415 0.030-2.086 0.808-2.465 1.026-0.946 0.502-1.641 1.214-2.2 1.592-0.781 0.575 0.874-1.469 1.569-2.319 0.201-0.291 0.294-0.349 0.552-0.691 0.402-0.56-0.122-1.389-0.379-1.287-0.316 0.145-0.516 0.77-0.896 0.989-0.136 0.080-0.595 0.764-1.017 1.244-0.316 0.349-0.545 0.509-0.846 0.909-0.516 0.618-0.616 1.105-1.060 1.76-0.272 0.392-0.473 0.494-0.717 0.945-1.326 2.53-0.946 3.672-2.207 5.46-0.387 0.574-0.824 0.698-1.441 1.032-0.574 4.232 1.319 6.595 1.311 6.58 1.598-0.923 2.451-1.309 4.114-1.25 0.624 0.036 0.953 0.305 1.569 0.261 0.573-0.036 0.867-0.254 1.441-0.429 0.882-0.298 1.361-0.546 2.243-0.822 0.631-0.182 1.003-0.189 1.613-0.429 0.523-0.197 0.272-0.015 0.638-0.429 0.466-0.545 0.358-0.96 0.76-1.847 0.595-1.214 0.53-1.374 0.215-1.505 0.201-0.625 0.258-1.025 0.208-1.679-0.065-0.509 0.151-0.865-0.379-1.243-0.724-0.567-2.243-1.847-2.623-1.854-0.588 0.007-2.279-0.058-3.139 0.516-0.193 0.153-0.251 0.276-0.086-0.167 0.036-0.080 2.143-1.745 2.372-1.767 1.503-0.033 1.882-0.095 1.953-0.129 0.149 0.004 1.427 1.581 2.204 1.031 0.287-0.196 0.43-0.371 0.552-0.683-0.108-0.225-0.581-0.56-1.018-0.815zM9.786 13.787c0.688-0.516 0.731-0.109 2.329-0.989 0-0.022 0.659 0.676 1.699 0.989-0.007 0.007 0.279 1.374 0.846 1.847-1.348 1.025-1.312 1.905-1.527 1.89-0.48-0.058-1.247-0.306-2.666 0.219-0.824-1.556-1.806-1.469-1.527-2.371 0.301-1.032 0.265-1.163 0.846-1.585z"></path>
</symbol>
</defs>
</svg>
