<svg aria-hidden="true" style="position: absolute; width: 0; height: 0; overflow: hidden;" version="1.1" xmlns="http://www.w3.org/2000/svg" xmlns:xlink="http://www.w3.org/1999/xlink">
<defs>
<symbol id="icon-close-menu" viewBox="0 0 32 32">
  <path d="M24 9.611l-1.611-1.611-6.389 6.389-6.389-6.389-1.611 1.611 6.389 6.389-6.389 6.389 1.611 1.611 6.389-6.389 6.389 6.389 1.611-1.611-6.389-6.389 6.389-6.389z"></path>
</symbol>
<symbol id="icon-open-menu" viewBox="0 0 32 32">
  <path d="M6.4 21.333c0 0.589 0.478 1.067 1.067 1.067h17.067c0.589 0 1.067-0.478 1.067-1.067s-0.478-1.067-1.067-1.067h-17.067c-0.589 0-1.067 0.478-1.067 1.067z"></path>
  <path d="M6.4 16c0 0.589 0.478 1.067 1.067 1.067h17.067c0.589 0 1.067-0.478 1.067-1.067s-0.478-1.067-1.067-1.067h-17.067c-0.589 0-1.067 0.478-1.067 1.067z"></path>
  <path d="M7.467 9.6c-0.589 0-1.067 0.478-1.067 1.067s0.478 1.067 1.067 1.067h17.067c0.589 0 1.067-0.478 1.067-1.067s-0.478-1.067-1.067-1.067h-17.067z"></path>
</symbol>
</defs>
</svg>
