<svg width="30" height="30" viewBox="0 0 30 30" fill="none" xmlns="http://www.w3.org/2000/svg">
<path d="M16.7625 15L22.1375 9.63749C22.3729 9.40211 22.5051 9.08286 22.5051 8.74999C22.5051 8.41711 22.3729 8.09787 22.1375 7.86249C21.9021 7.62711 21.5829 7.49487 21.25 7.49487C20.9171 7.49487 20.5979 7.62711 20.3625 7.86249L15 13.2375L9.6375 7.86249C9.40212 7.62711 9.08288 7.49487 8.75 7.49487C8.41712 7.49487 8.09788 7.62711 7.8625 7.86249C7.62712 8.09787 7.49489 8.41711 7.49489 8.74999C7.49489 9.08286 7.62712 9.40211 7.8625 9.63749L13.2375 15L7.8625 20.3625C7.74534 20.4787 7.65235 20.6169 7.58889 20.7693C7.52543 20.9216 7.49275 21.085 7.49275 21.25C7.49275 21.415 7.52543 21.5784 7.58889 21.7307C7.65235 21.883 7.74534 22.0213 7.8625 22.1375C7.9787 22.2546 8.11695 22.3476 8.26928 22.4111C8.4216 22.4746 8.58499 22.5072 8.75 22.5072C8.91501 22.5072 9.0784 22.4746 9.23072 22.4111C9.38305 22.3476 9.5213 22.2546 9.6375 22.1375L15 16.7625L20.3625 22.1375C20.4787 22.2546 20.617 22.3476 20.7693 22.4111C20.9216 22.4746 21.085 22.5072 21.25 22.5072C21.415 22.5072 21.5784 22.4746 21.7307 22.4111C21.883 22.3476 22.0213 22.2546 22.1375 22.1375C22.2547 22.0213 22.3477 21.883 22.4111 21.7307C22.4746 21.5784 22.5072 21.415 22.5072 21.25C22.5072 21.085 22.4746 20.9216 22.4111 20.7693C22.3477 20.6169 22.2547 20.4787 22.1375 20.3625L16.7625 15Z" fill="black"/>
</svg>
