<svg width="70" height="70" viewBox="0 0 70 70" fill="none" xmlns="http://www.w3.org/2000/svg">
<g clip-path="url(#clip0_501234_593)">
<path d="M40.8905 10.2863L36.8657 6.83666C36.4228 6.45476 35.7639 6.45476 35.321 6.83666L31.1645 10.3992C30.7861 10.7223 30.6504 11.2462 30.8237 11.7124C30.9953 12.1787 31.4393 12.4876 31.9369 12.4876H33.1242V14.8628C33.1242 15.5189 33.6554 16.0501 34.3115 16.0501H37.874C38.5301 16.0501 39.0619 15.5189 39.0619 14.8628V12.4876H40.2486C40.2566 12.4893 40.2663 12.4893 40.272 12.4876C40.9286 12.4876 41.4599 11.9564 41.4599 11.3003C41.4605 10.8705 41.2313 10.4949 40.8905 10.2863Z" fill="#EC3C05"/>
<path d="M31.3184 59.8141L35.3437 63.2632C35.7866 63.6462 36.4461 63.6462 36.8884 63.2632L41.0449 59.7007C41.4228 59.3787 41.5579 58.8548 41.3857 58.388C41.2141 57.9217 40.7701 57.6128 40.2725 57.6128H39.0852V55.2376C39.0852 54.5815 38.554 54.0503 37.8979 54.0503H34.3354C33.6793 54.0503 33.1481 54.5815 33.1481 55.2376V57.6128H31.9602C31.9516 57.6111 31.9425 57.6111 31.9368 57.6128C31.2802 57.6128 30.7495 58.144 30.7495 58.8001C30.7495 59.2293 30.9775 59.6061 31.3184 59.8141Z" fill="#EC3C05"/>
<path d="M60.2636 40.4188L63.7127 36.3934C64.0957 35.9511 64.0957 35.2916 63.7127 34.8487L60.1502 30.6923C59.8281 30.3144 59.3043 30.1787 58.8375 30.3514C58.3712 30.523 58.0623 30.9676 58.0623 31.4646V32.6519H55.6871C55.031 32.6519 54.4998 33.1832 54.4998 33.8392V37.4017C54.4998 38.0578 55.031 38.5891 55.6871 38.5891H58.0623V39.7764C58.0605 39.7855 58.0605 39.794 58.0623 39.7997C58.0623 40.4564 58.5935 40.9876 59.2496 40.9876C59.6793 40.9882 60.0555 40.7602 60.2636 40.4188Z" fill="#EC3C05"/>
<path d="M10.7357 30.8456L7.28661 34.8709C6.90414 35.3138 6.90414 35.9727 7.28661 36.4156L10.8491 40.5715C11.1717 40.95 11.6956 41.0845 12.1618 40.9124C12.6281 40.7408 12.937 40.2968 12.937 39.7992V38.6124H15.3122C15.9683 38.6124 16.4995 38.0806 16.4995 37.4245V33.862C16.4995 33.206 15.9683 32.6747 15.3122 32.6747H12.937V31.4874C12.9387 31.4789 12.9387 31.4697 12.937 31.464C12.937 30.808 12.4058 30.2767 11.7497 30.2767C11.3205 30.2762 10.9443 30.5047 10.7357 30.8456Z" fill="#EC3C05"/>
<path d="M46.151 51.3884L43.8374 42.1367L46.1675 29.326C46.2855 28.6813 45.858 28.0628 45.2111 27.946C44.5681 27.8217 43.9485 28.2555 43.8317 28.9019L41.6332 40.9882H34.3121C33.656 40.9882 33.1248 41.5194 33.1248 42.1755C33.1248 42.8315 33.656 43.3628 34.3121 43.3628H35.1665L33.1601 51.3878C33 52.0228 33.3876 52.668 34.0248 52.8271C34.1206 52.851 34.2181 52.8624 34.3133 52.8624C34.8462 52.8624 35.329 52.5027 35.4635 51.9624L37.613 43.3622H41.6976L43.8471 51.9624C43.9816 52.5027 44.4661 52.8624 44.9985 52.8624C45.0931 52.8624 45.1906 52.8504 45.2875 52.8271C45.9236 52.6686 46.3112 52.0234 46.151 51.3884Z" fill="black"/>
<path d="M40.6419 39.8003L41.5049 35.0505H18.8748V52.863H22.4373V39.8003H34.3121H40.6419Z" fill="black"/>
<path d="M46.3334 35.0505L45.4688 39.8003H48.5621V52.863H52.1246V35.0505H46.3334Z" fill="black"/>
<path d="M34.3122 29.1128V18.4253H21.2495V29.1128H25.9993V30.3001C25.9993 31.3803 25.4567 31.4874 23.6241 31.4874C21.184 31.4874 21.2489 32.7813 21.2489 33.8626H27.2493H28.3118H33.1243H34.3116C34.3116 32.783 34.3116 31.4874 31.9364 31.4874C30.1039 31.4874 29.5613 31.3803 29.5613 30.3001V29.1128H34.3122ZM23.6247 26.7382V20.8005H31.9376V26.7382H23.6247Z" fill="black"/>
</g>
<defs>
<clipPath id="clip0_501234_593">
<rect width="57" height="57" fill="white" transform="translate(7 6.54993)"/>
</clipPath>
</defs>
</svg>
