<svg width="70" height="70" viewBox="0 0 70 70" fill="none" xmlns="http://www.w3.org/2000/svg">
<g clip-path="url(#clip0_501234_547)">
<path d="M64.8949 21.603C61.3998 23.6703 59.5187 24.5137 55.8963 24.3232C54.5326 24.3073 53.8117 23.7185 52.4636 23.8457C51.2091 23.8932 50.5669 24.3706 49.3118 24.7999C47.3839 25.4046 46.3328 25.9454 44.3107 26.5817C43.0256 26.9477 42.2112 26.9635 40.878 27.4245C39.734 27.9177 40.2826 27.5201 39.4831 28.4578C38.4483 29.619 38.6992 30.5258 37.7275 32.5133C36.5211 35.122 36.6608 35.4715 37.3511 35.79C36.8968 37.1253 36.7876 38.0169 36.8968 39.4637C37.0216 40.5609 36.5679 41.3239 37.7275 42.1983C39.3115 43.3919 42.635 46.1905 43.4819 46.2373C44.7514 46.1905 48.4518 46.3336 50.3323 45.0141C50.7561 44.7437 50.8815 44.4733 50.5201 45.4922C50.4428 45.6188 45.833 49.2608 45.3318 49.2443C41.7809 49.3604 41.0997 49.5285 41.0347 49.6109C40.6265 49.4507 37.9069 46.1575 36.2396 47.3676C35.5961 47.7659 35.2984 48.1477 35.0469 48.8638C35.2666 49.3247 36.302 50.0574 37.2569 50.6614C38.6368 51.553 38.7616 52.4893 40.1416 52.825C41.8186 53.2055 43.6061 52.9509 44.6714 53.094C45.0803 53.2055 48.7794 52.1082 51.0837 50.852C53.2157 49.7389 48.1522 52.9991 46.9133 54.6055C43.1823 55.799 44.2333 55.8465 42.4608 56.2125C40.815 56.5936 40.893 56.4987 39.7646 56.864C38.6043 57.1502 37.6482 58.7566 38.7467 59.5986C39.4051 60.1559 41.4591 59.3764 43.4806 59.3118C44.3744 59.2973 48.0267 57.5946 48.8574 57.1495C50.9277 56.0199 52.4467 54.4617 53.67 53.5702C55.3626 52.3786 51.7577 56.8633 50.2367 58.7401C49.798 59.3454 49.5945 59.4714 49.0459 60.2508C48.1372 61.445 49.2962 63.2578 49.876 62.971C50.55 62.7171 50.9894 61.3494 51.7259 60.9037C52.1029 60.6966 53.1058 59.201 54.0464 58.1835C54.736 57.3889 55.2378 57.0387 55.8963 56.2118C57.0097 54.8119 57.2444 53.7469 58.2168 52.2513C58.8122 51.4712 59.2347 51.2338 59.7833 50.2796C62.6842 44.7134 61.8373 42.2154 64.6128 38.2398C65.4597 37.0627 66.4152 36.7758 67.764 36.0762C69.0178 26.8033 64.8637 21.6189 64.8949 21.603ZM51.4438 36.363C50.7847 38.7007 50.8484 38.9711 49.5939 39.8455C48.0729 41.0225 47.9942 40.1317 44.4992 42.104C44.4992 42.104 43.0562 40.5774 40.7831 39.8455C40.7981 39.8778 40.1715 36.8873 38.9332 35.8849C41.8797 33.6106 41.801 31.687 42.2723 31.7503C43.3227 31.8459 45.001 32.3867 48.1047 31.1938C49.8929 34.6452 52.0561 34.4698 51.4438 36.363Z" fill="#EC3C05"/>
<path d="M33.745 19.4387C32.3657 18.5003 32.2246 17.5619 30.8603 17.2599C29.1833 16.8465 27.3802 17.101 26.3291 16.8939C25.9216 16.8465 22.2224 17.9437 19.9331 19.1525C17.7699 20.3137 22.849 17.0529 24.1035 15.3832C27.8189 14.2542 26.7529 14.2061 28.556 13.7926C30.1862 13.459 30.1076 13.5539 31.2366 13.2203C32.3813 12.9024 33.353 11.3112 32.2552 10.4052C31.5811 9.89607 29.5434 10.6755 27.5362 10.6913C26.6275 10.756 22.9738 12.458 22.1431 12.9347C20.0735 14.032 18.5532 15.5909 17.3305 16.4178C15.6217 17.6747 19.2428 13.2051 20.7638 11.3442C21.2026 10.7078 21.4067 10.5806 21.9702 9.83343C22.849 8.60887 21.7037 6.79544 21.1402 7.01832C20.4499 7.33617 20.0118 8.70382 19.1798 9.18125C18.8821 9.35666 17.8785 10.8516 16.9542 11.9014C16.2639 12.665 15.7621 13.0145 15.1036 13.8896C13.9752 15.2414 13.7555 16.307 12.7838 17.7387C12.1884 18.5972 11.749 18.8201 11.216 19.806C8.31631 25.3406 9.14701 27.8378 6.38776 31.7502C5.54146 33.0064 4.58531 33.2768 3.23656 34.0087C1.98206 43.2651 6.12126 48.4344 6.10501 48.4028C9.60136 46.3836 11.4669 45.5395 15.1043 45.6681C16.4686 45.7472 17.1895 46.3354 18.5376 46.2392C19.7921 46.1607 20.4343 45.6826 21.6888 45.3015C23.6173 44.6499 24.6671 44.1079 26.5956 43.5032C27.9756 43.1049 28.7907 43.0897 30.1238 42.5655C31.2678 42.1355 30.7192 42.5332 31.5187 41.6265C32.5373 40.4336 32.302 39.5268 33.1808 37.5861C34.4821 34.9306 34.3404 34.5805 33.6507 34.2943C34.0901 32.9266 34.2156 32.0522 34.1051 30.6206C33.964 29.5075 34.4346 28.728 33.275 27.9005C31.691 26.6601 28.3675 23.8608 27.5368 23.845C26.2511 23.8608 22.5513 23.7177 20.6702 24.9739C20.2477 25.3076 20.1216 25.5786 20.4824 24.6079C20.561 24.4325 25.1702 20.7905 25.6713 20.743C28.9597 20.6718 29.7871 20.5353 29.9438 20.4601C30.2688 20.4687 33.0664 23.9175 34.7648 22.7154C35.3921 22.2861 35.7054 21.9043 35.9719 21.2204C35.7366 20.7272 34.7018 19.9959 33.745 19.4387ZM21.4067 30.1597C22.9114 29.0307 23.005 29.9209 26.5014 27.9967C26.5014 27.9486 27.9437 29.4758 30.2174 30.1597C30.2018 30.1755 30.8284 33.1653 32.0673 34.1993C29.1196 36.442 29.1982 38.3669 28.7276 38.3346C27.6766 38.2073 25.9996 37.6659 22.8958 38.8127C21.0927 35.4087 18.9451 35.5993 19.5561 33.6269C20.2146 31.3684 20.1366 31.0822 21.4067 30.1597Z" fill="black"/>
</g>
<defs>
<clipPath id="clip0_501234_547">
<rect width="65" height="56" fill="white" transform="translate(3 7)"/>
</clipPath>
</defs>
</svg>
