<svg width="44" height="44" viewBox="0 0 44 44" fill="none" xmlns="http://www.w3.org/2000/svg">
<path d="M8.80005 29.3334C8.80005 30.1434 9.4567 30.8 10.2667 30.8H33.7334C34.5434 30.8 35.2001 30.1434 35.2001 29.3334C35.2001 28.5233 34.5434 27.8667 33.7334 27.8667H10.2667C9.4567 27.8667 8.80005 28.5233 8.80005 29.3334Z" fill="#757575"/>
<path d="M8.80005 21.9999C8.80005 22.8099 9.4567 23.4665 10.2667 23.4665H33.7334C34.5434 23.4665 35.2001 22.8099 35.2001 21.9999C35.2001 21.1899 34.5434 20.5332 33.7334 20.5332H10.2667C9.4567 20.5332 8.80005 21.1899 8.80005 21.9999Z" fill="#757575"/>
<path d="M10.2667 13.2C9.4567 13.2 8.80005 13.8566 8.80005 14.6666C8.80005 15.4766 9.4567 16.1333 10.2667 16.1333H33.7334C34.5434 16.1333 35.2001 15.4766 35.2001 14.6666C35.2001 13.8566 34.5434 13.2 33.7334 13.2H10.2667Z" fill="#757575"/>
</svg>
