<svg width="189" height="36" viewBox="0 0 189 36" fill="none" xmlns="http://www.w3.org/2000/svg">
<path d="M45.832 26.696H51.88C53.896 26.696 54.904 25.652 54.904 23.564V11.288C54.904 9.2 53.896 8.156 51.88 8.156H45.832C45.592 8.156 45.472 8.264 45.472 8.48V26.372C45.472 26.588 45.592 26.696 45.832 26.696ZM42.844 28.496V6.356C42.844 6.02 43.012 5.852 43.348 5.852H52.204C53.86 5.852 55.156 6.332 56.092 7.292C57.052 8.228 57.532 9.524 57.532 11.18V23.672C57.532 25.328 57.052 26.636 56.092 27.596C55.156 28.532 53.86 29 52.204 29H43.348C43.012 29 42.844 28.832 42.844 28.496ZM71.6319 29H68.5359C66.8799 29 65.5719 28.532 64.6119 27.596C63.6759 26.66 63.2079 25.352 63.2079 23.672V15.968C63.2079 14.288 63.6759 12.98 64.6119 12.044C65.5719 11.108 66.8799 10.64 68.5359 10.64H71.6319C73.2879 10.64 74.5839 11.108 75.5199 12.044C76.4799 12.98 76.9599 14.288 76.9599 15.968V23.672C76.9599 25.352 76.4799 26.66 75.5199 27.596C74.5839 28.532 73.2879 29 71.6319 29ZM68.8239 26.696H71.3439C73.3599 26.696 74.3679 25.664 74.3679 23.6V16.04C74.3679 13.976 73.3599 12.944 71.3439 12.944H68.8239C66.8079 12.944 65.7999 13.976 65.7999 16.04V23.6C65.7999 25.664 66.8079 26.696 68.8239 26.696ZM84.9519 29H83.3319C82.9959 29 82.8279 28.832 82.8279 28.496V4.196C82.8279 3.86 82.9959 3.692 83.3319 3.692H84.9519C85.2879 3.692 85.4559 3.86 85.4559 4.196V28.496C85.4559 28.832 85.2879 29 84.9519 29Z" fill="#EC3C05"/>
<path d="M100.889 29H97.0012C95.3452 29 94.0372 28.532 93.0772 27.596C92.1412 26.66 91.6732 25.352 91.6732 23.672V11.18C91.6732 9.5 92.1412 8.192 93.0772 7.256C94.0372 6.32 95.3452 5.852 97.0012 5.852H100.889C102.545 5.852 103.841 6.332 104.777 7.292C105.713 8.228 106.181 9.524 106.181 11.18V12.656C106.181 13.016 106.013 13.196 105.677 13.196H104.057C103.721 13.196 103.553 13.016 103.553 12.656V11.288C103.553 9.2 102.557 8.156 100.565 8.156H97.2892C95.2972 8.156 94.3012 9.2 94.3012 11.288V23.564C94.3012 25.652 95.2972 26.696 97.2892 26.696H100.565C102.557 26.696 103.553 25.652 103.553 23.564V19.532C103.553 19.292 103.445 19.172 103.229 19.172H99.6652C99.3292 19.172 99.1612 19.016 99.1612 18.704V17.372C99.1612 17.036 99.3292 16.868 99.6652 16.868H105.461C105.941 16.868 106.181 17.12 106.181 17.624V23.672C106.181 25.352 105.713 26.66 104.777 27.596C103.841 28.532 102.545 29 100.889 29ZM119.25 29H117.234C115.602 29 114.33 28.532 113.418 27.596C112.506 26.66 112.05 25.352 112.05 23.672V11.144C112.05 10.808 112.218 10.64 112.554 10.64H114.174C114.51 10.64 114.678 10.808 114.678 11.144V23.564C114.678 25.652 115.674 26.696 117.666 26.696H119.718C120.798 26.696 121.626 26.408 122.202 25.832C122.778 25.256 123.066 24.44 123.066 23.384V11.144C123.066 10.808 123.234 10.64 123.57 10.64H125.19C125.526 10.64 125.694 10.808 125.694 11.144V28.496C125.694 28.832 125.526 29 125.19 29H123.57C123.234 29 123.066 28.832 123.066 28.496V27.092H122.922C122.322 28.364 121.098 29 119.25 29ZM134.036 29H132.416C132.08 29 131.912 28.832 131.912 28.496V4.196C131.912 3.86 132.08 3.692 132.416 3.692H134.036C134.372 3.692 134.54 3.86 134.54 4.196V28.496C134.54 28.832 134.372 29 134.036 29ZM147.705 29H145.581C143.949 29 142.677 28.532 141.765 27.596C140.853 26.66 140.397 25.352 140.397 23.672V15.968C140.397 14.288 140.853 12.98 141.765 12.044C142.677 11.108 143.949 10.64 145.581 10.64H147.705C149.577 10.64 150.813 11.276 151.413 12.548H151.557V4.196C151.557 3.86 151.713 3.692 152.025 3.692H153.681C153.993 3.692 154.149 3.86 154.149 4.196V28.496C154.149 28.832 153.993 29 153.681 29H152.025C151.713 29 151.557 28.832 151.557 28.496V27.092H151.413C150.813 28.364 149.577 29 147.705 29ZM151.557 23.384V16.256C151.557 15.2 151.269 14.384 150.693 13.808C150.117 13.232 149.289 12.944 148.209 12.944H146.013C144.021 12.944 143.025 13.988 143.025 16.076V23.564C143.025 25.652 144.021 26.696 146.013 26.696H148.209C149.289 26.696 150.117 26.408 150.693 25.832C151.269 25.256 151.557 24.44 151.557 23.384ZM167.209 29H165.193C163.561 29 162.289 28.532 161.377 27.596C160.465 26.66 160.009 25.352 160.009 23.672V11.144C160.009 10.808 160.177 10.64 160.513 10.64H162.133C162.469 10.64 162.637 10.808 162.637 11.144V23.564C162.637 25.652 163.633 26.696 165.625 26.696H167.677C168.757 26.696 169.585 26.408 170.161 25.832C170.737 25.256 171.025 24.44 171.025 23.384V11.144C171.025 10.808 171.193 10.64 171.529 10.64H173.149C173.485 10.64 173.653 10.808 173.653 11.144V28.496C173.653 28.832 173.485 29 173.149 29H171.529C171.193 29 171.025 28.832 171.025 28.496V27.092H170.881C170.281 28.364 169.057 29 167.209 29ZM181.814 29H180.194C179.858 29 179.69 28.832 179.69 28.496V11.144C179.69 10.808 179.858 10.64 180.194 10.64H181.814C182.15 10.64 182.318 10.808 182.318 11.144V12.584H182.462C182.702 12.056 183.158 11.6 183.83 11.216C184.502 10.832 185.294 10.64 186.206 10.64H187.61C187.922 10.64 188.078 10.808 188.078 11.144V12.476C188.078 12.644 188.042 12.776 187.97 12.872C187.898 12.944 187.778 12.968 187.61 12.944H185.666C184.586 12.944 183.758 13.268 183.182 13.916C182.606 14.564 182.318 15.452 182.318 16.58V28.496C182.318 28.832 182.15 29 181.814 29Z" fill="black"/>
<rect x="1" y="18" width="9.23077" height="9.23077" transform="rotate(-45 1 18)" fill="url(#paint0_linear_501217_320)"/>
<rect x="8.61499" y="25.615" width="9.23077" height="9.23077" transform="rotate(-45 8.61499 25.615)" fill="url(#paint1_linear_501217_320)"/>
<rect x="16.2302" y="18" width="9.23077" height="9.23077" transform="rotate(-45 16.2302 18)" fill="url(#paint2_linear_501217_320)"/>
<rect x="8.61499" y="10.385" width="9.23077" height="9.23077" transform="rotate(-45 8.61499 10.385)" fill="url(#paint3_linear_501217_320)"/>
<defs>
<linearGradient id="paint0_linear_501217_320" x1="0.99172" y1="17.9917" x2="10.2385" y2="27.2385" gradientUnits="userSpaceOnUse">
<stop stop-color="white" stop-opacity="0"/>
<stop offset="0.244792" stop-color="#EC3C05" stop-opacity="0.3"/>
<stop offset="0.583333" stop-color="#EC3C05"/>
</linearGradient>
<linearGradient id="paint1_linear_501217_320" x1="8.71549" y1="25.6073" x2="17.6359" y2="34.5277" gradientUnits="userSpaceOnUse">
<stop stop-color="#EC3C05"/>
<stop offset="0.479167" stop-color="#7B1F03"/>
<stop offset="1"/>
</linearGradient>
<linearGradient id="paint2_linear_501217_320" x1="16.3857" y1="18.1554" x2="25.0341" y2="26.8039" gradientUnits="userSpaceOnUse">
<stop stop-color="#7A1F02"/>
<stop offset="0.53125"/>
<stop offset="1" stop-color="#007EB4"/>
</linearGradient>
<linearGradient id="paint3_linear_501217_320" x1="8.60726" y1="10.4855" x2="17.7453" y2="19.6235" gradientUnits="userSpaceOnUse">
<stop offset="0.00492678" stop-color="#EC3C05"/>
<stop offset="0.9999"/>
<stop offset="1" stop-color="#ED4E4E" stop-opacity="0"/>
</linearGradient>
</defs>
</svg>
