<svg width="140" height="25" viewBox="0 0 140 25" fill="none" xmlns="http://www.w3.org/2000/svg">
<path d="M43.888 17.464H47.92C49.264 17.464 49.936 16.768 49.936 15.376V7.192C49.936 5.8 49.264 5.104 47.92 5.104H43.888C43.728 5.104 43.648 5.176 43.648 5.32V17.248C43.648 17.392 43.728 17.464 43.888 17.464ZM41.896 18.664V3.904C41.896 3.68 42.008 3.568 42.232 3.568H48.136C49.24 3.568 50.104 3.888 50.728 4.528C51.368 5.152 51.688 6.016 51.688 7.12V15.448C51.688 16.552 51.368 17.424 50.728 18.064C50.104 18.688 49.24 19 48.136 19H42.232C42.008 19 41.896 18.888 41.896 18.664ZM61.0879 19H59.0239C57.9199 19 57.0479 18.688 56.4079 18.064C55.7839 17.44 55.4719 16.568 55.4719 15.448V10.312C55.4719 9.192 55.7839 8.32 56.4079 7.696C57.0479 7.072 57.9199 6.76 59.0239 6.76H61.0879C62.1919 6.76 63.0559 7.072 63.6799 7.696C64.3199 8.32 64.6399 9.192 64.6399 10.312V15.448C64.6399 16.568 64.3199 17.44 63.6799 18.064C63.0559 18.688 62.1919 19 61.0879 19ZM59.2159 17.464H60.8959C62.2399 17.464 62.9119 16.776 62.9119 15.4V10.36C62.9119 8.984 62.2399 8.296 60.8959 8.296H59.2159C57.8719 8.296 57.1999 8.984 57.1999 10.36V15.4C57.1999 16.776 57.8719 17.464 59.2159 17.464ZM69.9679 19H68.8879C68.6639 19 68.5519 18.888 68.5519 18.664V2.464C68.5519 2.24 68.6639 2.128 68.8879 2.128H69.9679C70.1919 2.128 70.3039 2.24 70.3039 2.464V18.664C70.3039 18.888 70.1919 19 69.9679 19Z" fill="#EC3C05"/>
<path d="M80.5928 19H78.0008C76.8968 19 76.0248 18.688 75.3848 18.064C74.7608 17.44 74.4488 16.568 74.4488 15.448V7.12C74.4488 6 74.7608 5.128 75.3848 4.504C76.0248 3.88 76.8968 3.568 78.0008 3.568H80.5928C81.6968 3.568 82.5608 3.888 83.1848 4.528C83.8088 5.152 84.1208 6.016 84.1208 7.12V8.104C84.1208 8.344 84.0088 8.464 83.7848 8.464H82.7048C82.4808 8.464 82.3688 8.344 82.3688 8.104V7.192C82.3688 5.8 81.7048 5.104 80.3768 5.104H78.1928C76.8648 5.104 76.2008 5.8 76.2008 7.192V15.376C76.2008 16.768 76.8648 17.464 78.1928 17.464H80.3768C81.7048 17.464 82.3688 16.768 82.3688 15.376V12.688C82.3688 12.528 82.2968 12.448 82.1528 12.448H79.7768C79.5528 12.448 79.4408 12.344 79.4408 12.136V11.248C79.4408 11.024 79.5528 10.912 79.7768 10.912H83.6408C83.9608 10.912 84.1208 11.08 84.1208 11.416V15.448C84.1208 16.568 83.8088 17.44 83.1848 18.064C82.5608 18.688 81.6968 19 80.5928 19ZM92.8332 19H91.4892C90.4012 19 89.5532 18.688 88.9452 18.064C88.3372 17.44 88.0332 16.568 88.0332 15.448V7.096C88.0332 6.872 88.1452 6.76 88.3692 6.76H89.4492C89.6732 6.76 89.7852 6.872 89.7852 7.096V15.376C89.7852 16.768 90.4492 17.464 91.7772 17.464H93.1452C93.8652 17.464 94.4172 17.272 94.8012 16.888C95.1852 16.504 95.3772 15.96 95.3772 15.256V7.096C95.3772 6.872 95.4892 6.76 95.7132 6.76H96.7932C97.0172 6.76 97.1292 6.872 97.1292 7.096V18.664C97.1292 18.888 97.0172 19 96.7932 19H95.7132C95.4892 19 95.3772 18.888 95.3772 18.664V17.728H95.2812C94.8812 18.576 94.0652 19 92.8332 19ZM102.69 19H101.61C101.386 19 101.274 18.888 101.274 18.664V2.464C101.274 2.24 101.386 2.128 101.61 2.128H102.69C102.914 2.128 103.026 2.24 103.026 2.464V18.664C103.026 18.888 102.914 19 102.69 19ZM111.803 19H110.387C109.299 19 108.451 18.688 107.843 18.064C107.235 17.44 106.931 16.568 106.931 15.448V10.312C106.931 9.192 107.235 8.32 107.843 7.696C108.451 7.072 109.299 6.76 110.387 6.76H111.803C113.051 6.76 113.875 7.184 114.275 8.032H114.371V2.464C114.371 2.24 114.475 2.128 114.683 2.128H115.787C115.995 2.128 116.099 2.24 116.099 2.464V18.664C116.099 18.888 115.995 19 115.787 19H114.683C114.475 19 114.371 18.888 114.371 18.664V17.728H114.275C113.875 18.576 113.051 19 111.803 19ZM114.371 15.256V10.504C114.371 9.8 114.179 9.256 113.795 8.872C113.411 8.488 112.859 8.296 112.139 8.296H110.675C109.347 8.296 108.683 8.992 108.683 10.384V15.376C108.683 16.768 109.347 17.464 110.675 17.464H112.139C112.859 17.464 113.411 17.272 113.795 16.888C114.179 16.504 114.371 15.96 114.371 15.256ZM124.806 19H123.462C122.374 19 121.526 18.688 120.918 18.064C120.31 17.44 120.006 16.568 120.006 15.448V7.096C120.006 6.872 120.118 6.76 120.342 6.76H121.422C121.646 6.76 121.758 6.872 121.758 7.096V15.376C121.758 16.768 122.422 17.464 123.75 17.464H125.118C125.838 17.464 126.39 17.272 126.774 16.888C127.158 16.504 127.35 15.96 127.35 15.256V7.096C127.35 6.872 127.462 6.76 127.686 6.76H128.766C128.99 6.76 129.102 6.872 129.102 7.096V18.664C129.102 18.888 128.99 19 128.766 19H127.686C127.462 19 127.35 18.888 127.35 18.664V17.728H127.254C126.854 18.576 126.038 19 124.806 19ZM134.543 19H133.463C133.239 19 133.127 18.888 133.127 18.664V7.096C133.127 6.872 133.239 6.76 133.463 6.76H134.543C134.767 6.76 134.879 6.872 134.879 7.096V8.056H134.975C135.135 7.704 135.439 7.4 135.887 7.144C136.335 6.888 136.863 6.76 137.471 6.76H138.407C138.615 6.76 138.719 6.872 138.719 7.096V7.984C138.719 8.096 138.695 8.184 138.647 8.248C138.599 8.296 138.519 8.312 138.407 8.296H137.111C136.391 8.296 135.839 8.512 135.455 8.944C135.071 9.376 134.879 9.968 134.879 10.72V18.664C134.879 18.888 134.767 19 134.543 19Z" fill="white"/>
<path d="M0.833374 12.5L6.27266 7.06072L11.7119 12.5L6.27266 17.9393L0.833374 12.5Z" fill="url(#paint0_linear_501217_15)"/>
<rect x="7.1792" y="18.8458" width="7.69231" height="7.69231" transform="rotate(-45 7.1792 18.8458)" fill="url(#paint1_linear_501217_15)"/>
<rect x="13.5251" y="12.5" width="7.69231" height="7.69231" transform="rotate(-45 13.5251 12.5)" fill="url(#paint2_linear_501217_15)"/>
<rect x="7.1792" y="6.15417" width="7.69231" height="7.69231" transform="rotate(-45 7.1792 6.15417)" fill="url(#paint3_linear_501217_15)"/>
<defs>
<linearGradient id="paint0_linear_501217_15" x1="0.823616" y1="12.5" x2="11.7211" y2="12.5" gradientUnits="userSpaceOnUse">
<stop stop-color="white"/>
<stop offset="0.0001" stop-color="white"/>
<stop offset="0.0002" stop-color="white"/>
<stop offset="0.630208" stop-color="#EC3C05"/>
</linearGradient>
<linearGradient id="paint1_linear_501217_15" x1="7.26295" y1="18.8394" x2="14.6966" y2="26.2731" gradientUnits="userSpaceOnUse">
<stop stop-color="#EC3C05"/>
<stop offset="0.479167" stop-color="#7B1F03"/>
<stop offset="1"/>
</linearGradient>
<linearGradient id="paint2_linear_501217_15" x1="13.6547" y1="12.6295" x2="20.8617" y2="19.8366" gradientUnits="userSpaceOnUse">
<stop stop-color="#7A1F02"/>
<stop offset="0.53125"/>
<stop offset="1" stop-color="#007EB4"/>
</linearGradient>
<linearGradient id="paint3_linear_501217_15" x1="7.17276" y1="6.23793" x2="14.7878" y2="13.8529" gradientUnits="userSpaceOnUse">
<stop offset="0.00492678" stop-color="#EC3C05"/>
<stop offset="0.9999"/>
<stop offset="1" stop-color="#ED4E4E" stop-opacity="0"/>
</linearGradient>
</defs>
</svg>
